<svg width="1920" height="2400" viewBox="0 0 1920 2400" fill="none" xmlns="http://www.w3.org/2000/svg">
<g clip-path="url(#clip0_352_2403)">
<rect width="1920" height="2400" fill="#3C4EF1"/>
<g opacity="0.2">
<g opacity="0.4">
<path d="M872.522 975.736C862.499 971.587 857.74 960.105 861.891 950.089C866.043 940.073 877.534 935.317 887.557 939.466C897.58 943.614 902.339 955.097 898.188 965.113C894.036 975.128 882.545 979.884 872.522 975.736Z" fill="white"/>
<path d="M1805.09 1320.14C1797.24 1320.14 1790.88 1313.78 1790.88 1305.94C1790.88 1298.09 1797.24 1291.74 1805.09 1291.74C1812.94 1291.74 1819.3 1298.09 1819.3 1305.94C1819.3 1313.78 1812.94 1320.14 1805.09 1320.14Z" fill="white"/>
<path d="M522.138 263.204C522.138 269.946 527.616 275.42 534.363 275.42C541.11 275.42 546.588 269.946 546.588 263.204C546.588 256.462 541.11 250.988 534.363 250.988C527.616 250.988 522.138 256.462 522.138 263.204Z" fill="white"/>
<path d="M1340 1765.79C1340 1772.53 1345.48 1778.01 1352.23 1778.01C1358.98 1778.01 1364.45 1772.53 1364.45 1765.79C1364.45 1759.05 1358.98 1753.57 1352.23 1753.57C1345.48 1753.57 1340 1759.05 1340 1765.79Z" fill="white"/>
<path d="M1778.65 12.216C1778.65 18.958 1784.13 24.4321 1790.88 24.4321C1797.63 24.4321 1803.1 18.958 1803.1 12.216C1803.1 5.47409 1797.63 0 1790.88 0C1784.13 0 1778.65 5.47409 1778.65 12.216Z" fill="white"/>
</g>
<path opacity="0.4" d="M1391.57 871.942L1531.33 952.577L1671.09 871.942V710.673L1531.33 630.038L1391.57 710.673V871.942Z" fill="white"/>
<path opacity="0.6" d="M1603.88 1896.51L1659.06 1928.35L1714.25 1896.51V1832.83L1659.06 1800.99L1603.88 1832.83V1896.51Z" fill="white"/>
<path opacity="0.2" d="M1621.27 2157.4L1720.91 2214.87L1820.53 2157.4V2042.44L1720.91 1984.96L1621.27 2042.44V2157.4Z" fill="white"/>
<path opacity="0.3" d="M1061.24 958.528L1157.86 1014.27L1254.48 958.528V847.048L1157.86 791.308L1061.24 847.048V958.528Z" fill="white"/>
<path opacity="0.2" d="M1261.38 1323.88L1399.08 1403.32L1536.79 1323.88V1164.98L1399.08 1085.52L1261.38 1164.98V1323.88Z" fill="white"/>
<path opacity="0.2" d="M1751.77 2066.59L1869.96 2134.79L1988.14 2066.59V1930.23L1869.96 1862.05L1751.77 1930.23V2066.59Z" fill="white"/>
<path opacity="0.2" d="M1471.07 1223.01L1620.87 1309.44L1770.68 1223.01V1050.16L1620.87 963.734L1471.07 1050.16V1223.01Z" fill="white"/>
<path opacity="0.2" d="M-45.8613 859.502L31.1387 904L108.139 859.502V770.498L31.1387 726L-45.8613 770.498V859.502Z" fill="white"/>
<path opacity="0.6" d="M57.3377 1883.62L134.315 1928.02L211.307 1883.62V1794.8L134.315 1750.38L57.3377 1794.8V1883.62Z" fill="white"/>
<path opacity="0.6" d="M-69.0006 1760.4L-4.09924 1797.84L60.7871 1760.4V1685.52L-4.09924 1648.08L-69.0006 1685.52V1760.4Z" fill="white"/>
<path opacity="0.5" d="M317.526 1586.84V1517.08L257.058 1482.19L196.59 1517.08V1586.84L257.058 1621.73L317.511 1586.84H317.526ZM134.316 1694.64L194.784 1729.52L255.252 1694.64V1624.88L194.784 1589.99L134.495 1624.77L134.316 1624.88V1694.65V1694.64ZM68.3848 1586.84L70.2058 1585.74L72.0269 1586.84L132.48 1621.71L192.933 1586.84V1517.05L132.48 1482.18V1478L194.754 1513.89L257.028 1478L321.139 1514.96V1588.93L258.864 1624.86V1696.74L194.769 1733.75L132.495 1697.81L70.2207 1733.75L6.11053 1696.74V1622.77L68.3848 1586.84ZM9.75265 1694.65L70.2058 1729.52L130.659 1694.65V1624.86L70.2058 1589.99L9.75265 1624.86V1694.65Z" fill="white"/>
<path opacity="0.5" d="M1604.48 1727.2V1801.96L1669.26 1839.34L1734.04 1801.96V1727.21L1669.26 1689.83L1604.48 1727.21V1727.2ZM1800.78 1611.71L1736 1574.33L1671.21 1611.71V1686.45L1736 1723.83L1800.58 1686.57L1800.78 1686.46V1611.71ZM1871.41 1727.2L1869.46 1728.38L1867.5 1727.2L1802.72 1689.83L1737.94 1727.2V1801.97L1802.72 1839.34V1843.81L1736 1805.36L1669.27 1843.81L1600.6 1804.21V1724.96L1667.32 1686.46V1609.45L1736 1569.81L1802.72 1608.3L1869.44 1569.81L1938.12 1609.45V1688.7L1871.4 1727.2H1871.41ZM1934.24 1611.69L1869.46 1574.33L1804.67 1611.69V1686.46L1869.46 1723.83L1934.24 1686.46V1611.69Z" fill="white"/>
<path opacity="0.2" d="M1651.16 707.451L1735.66 756.211L1820.16 707.451V609.961L1735.66 561.202L1651.16 609.961V707.451Z" fill="white"/>
<path opacity="0.5" d="M1524.16 583.993V667.507L1596.54 709.271L1668.92 667.507V584.008L1596.54 542.244L1524.16 583.993ZM1743.47 454.957L1671.09 413.207L1598.71 454.957V538.47L1671.09 580.234L1743.24 538.604L1743.45 538.485V454.972L1743.47 454.957ZM1822.38 583.993L1820.21 585.306L1818.03 583.993L1745.66 542.259L1673.3 583.993V667.521L1745.66 709.256V714.253L1671.12 671.295L1596.57 714.253L1519.84 670.012V581.472L1594.38 538.455V452.421L1671.12 408.121L1745.66 451.138L1820.21 408.121L1896.94 452.421V540.961L1822.4 583.978L1822.38 583.993ZM1892.57 454.942L1820.21 413.207L1747.84 454.942V538.47L1820.21 580.204L1892.57 538.47V454.942Z" fill="white"/>
<path opacity="0.4" d="M-2.23425 644.821L137.524 725.456L277.283 644.821V483.552L137.524 402.917L-2.23425 483.552V644.821Z" fill="white"/>
<path opacity="0.5" d="M130.359 356.872V440.385L202.739 482.15L275.118 440.385V356.887L202.739 315.123L130.359 356.872ZM349.662 227.836L277.283 186.086L204.903 227.836V311.349L277.283 353.113L349.438 311.483L349.647 311.364V227.85L349.662 227.836ZM428.58 356.872L426.4 358.185L424.221 356.872L351.857 315.138L279.492 356.872V440.4L351.857 482.135V487.132L277.313 444.174L202.769 487.132L126.03 442.891V354.351L200.574 311.334V225.3L277.313 181L351.857 224.017L426.4 181L503.139 225.3V313.84L428.595 356.857L428.58 356.872ZM498.765 227.821L426.4 186.086L354.036 227.821V311.349L426.4 353.083L498.765 311.349V227.821Z" fill="white"/>
</g>
</g>
<defs>
<clipPath id="clip0_352_2403">
<rect width="1920" height="2400" fill="white"/>
</clipPath>
</defs>
</svg>
