<svg width="392" height="717" viewBox="0 0 392 717" fill="none" xmlns="http://www.w3.org/2000/svg">
<path fill-rule="evenodd" clip-rule="evenodd" d="M1.00006 61V716H391V60.9998H256L196 1.00004L1 1L1.00001 61H1.00006Z" fill="#3C4EF1"/>
<path d="M1.00006 716H0.500058V716.5H1.00006V716ZM1.00006 61H1.50006V60.5H1.00006V61ZM391 716V716.5H391.5V716H391ZM391 60.9998H391.5V60.4998H391V60.9998ZM256 60.9998L255.646 61.3533L255.793 61.4998H256V60.9998ZM196 1.00004L196.354 0.646484L196.207 0.500038L196 0.500038L196 1.00004ZM1 1L1 0.5L0.5 0.5L0.5 1L1 1ZM1.00001 61L0.500005 61L0.500005 61.5H1.00001V61ZM1.50006 716V61H0.500058V716H1.50006ZM391 715.5H1.00006V716.5H391V715.5ZM390.5 60.9998V716H391.5V60.9998H390.5ZM256 61.4998H391V60.4998H256V61.4998ZM256.353 60.6462L196.354 0.646484L195.646 1.35359L255.646 61.3533L256.353 60.6462ZM196 0.500038L1 0.5L1 1.5L196 1.50004L196 0.500038ZM0.5 1L0.500005 61L1.50001 61L1.5 1L0.5 1ZM1.00001 61.5H1.00006V60.5H1.00001V61.5Z" fill="#3C4EF1"/>
<g opacity="0.2">
<path d="M25 33C29.4183 33 33 29.4183 33 25C33 29.4183 36.5817 33 41 33C36.5817 33 33 36.5817 33 41C33 36.5817 29.4183 33 25 33Z" fill="white"/>
<path d="M45 33C49.4183 33 53 29.4183 53 25C53 29.4183 56.5817 33 61 33C56.5817 33 53 36.5817 53 41C53 36.5817 49.4183 33 45 33Z" fill="white"/>
<path d="M65 33C69.4183 33 73 29.4183 73 25C73 29.4183 76.5817 33 81 33C76.5817 33 73 36.5817 73 41C73 36.5817 69.4183 33 65 33Z" fill="white"/>
<path d="M85 33C89.4183 33 93 29.4183 93 25C93 29.4183 96.5817 33 101 33C96.5817 33 93 36.5817 93 41C93 36.5817 89.4183 33 85 33Z" fill="white"/>
<path d="M105 33C109.418 33 113 29.4183 113 25C113 29.4183 116.582 33 121 33C116.582 33 113 36.5817 113 41C113 36.5817 109.418 33 105 33Z" fill="white"/>
<path d="M125 33C129.418 33 133 29.4183 133 25C133 29.4183 136.582 33 141 33C136.582 33 133 36.5817 133 41C133 36.5817 129.418 33 125 33Z" fill="white"/>
<path d="M145 33C149.418 33 153 29.4183 153 25C153 29.4183 156.582 33 161 33C156.582 33 153 36.5817 153 41C153 36.5817 149.418 33 145 33Z" fill="white"/>
<path d="M25 53C29.4183 53 33 49.4183 33 45C33 49.4183 36.5817 53 41 53C36.5817 53 33 56.5817 33 61C33 56.5817 29.4183 53 25 53Z" fill="white"/>
<path d="M45 53C49.4183 53 53 49.4183 53 45C53 49.4183 56.5817 53 61 53C56.5817 53 53 56.5817 53 61C53 56.5817 49.4183 53 45 53Z" fill="white"/>
<path d="M65 53C69.4183 53 73 49.4183 73 45C73 49.4183 76.5817 53 81 53C76.5817 53 73 56.5817 73 61C73 56.5817 69.4183 53 65 53Z" fill="white"/>
<path d="M85 53C89.4183 53 93 49.4183 93 45C93 49.4183 96.5817 53 101 53C96.5817 53 93 56.5817 93 61C93 56.5817 89.4183 53 85 53Z" fill="white"/>
<path d="M105 53C109.418 53 113 49.4183 113 45C113 49.4183 116.582 53 121 53C116.582 53 113 56.5817 113 61C113 56.5817 109.418 53 105 53Z" fill="white"/>
</g>
<g opacity="0.2">
<path d="M25 644C29.4183 644 33 640.418 33 636C33 640.418 36.5817 644 41 644C36.5817 644 33 647.582 33 652C33 647.582 29.4183 644 25 644Z" fill="white"/>
<path d="M45 644C49.4183 644 53 640.418 53 636C53 640.418 56.5817 644 61 644C56.5817 644 53 647.582 53 652C53 647.582 49.4183 644 45 644Z" fill="white"/>
<path d="M65 644C69.4183 644 73 640.418 73 636C73 640.418 76.5817 644 81 644C76.5817 644 73 647.582 73 652C73 647.582 69.4183 644 65 644Z" fill="white"/>
<path d="M85 644C89.4183 644 93 640.418 93 636C93 640.418 96.5817 644 101 644C96.5817 644 93 647.582 93 652C93 647.582 89.4183 644 85 644Z" fill="white"/>
<path d="M105 644C109.418 644 113 640.418 113 636C113 640.418 116.582 644 121 644C116.582 644 113 647.582 113 652C113 647.582 109.418 644 105 644Z" fill="white"/>
<path d="M125 644C129.418 644 133 640.418 133 636C133 640.418 136.582 644 141 644C136.582 644 133 647.582 133 652C133 647.582 129.418 644 125 644Z" fill="white"/>
<path d="M145 644C149.418 644 153 640.418 153 636C153 640.418 156.582 644 161 644C156.582 644 153 647.582 153 652C153 647.582 149.418 644 145 644Z" fill="white"/>
<path d="M165 644C169.418 644 173 640.418 173 636C173 640.418 176.582 644 181 644C176.582 644 173 647.582 173 652C173 647.582 169.418 644 165 644Z" fill="white"/>
<path d="M185 644C189.418 644 193 640.418 193 636C193 640.418 196.582 644 201 644C196.582 644 193 647.582 193 652C193 647.582 189.418 644 185 644Z" fill="white"/>
<path d="M205 644C209.418 644 213 640.418 213 636C213 640.418 216.582 644 221 644C216.582 644 213 647.582 213 652C213 647.582 209.418 644 205 644Z" fill="white"/>
<path d="M225 644C229.418 644 233 640.418 233 636C233 640.418 236.582 644 241 644C236.582 644 233 647.582 233 652C233 647.582 229.418 644 225 644Z" fill="white"/>
<path d="M25 664C29.4183 664 33 660.418 33 656C33 660.418 36.5817 664 41 664C36.5817 664 33 667.582 33 672C33 667.582 29.4183 664 25 664Z" fill="white"/>
<path d="M45 664C49.4183 664 53 660.418 53 656C53 660.418 56.5817 664 61 664C56.5817 664 53 667.582 53 672C53 667.582 49.4183 664 45 664Z" fill="white"/>
<path d="M65 664C69.4183 664 73 660.418 73 656C73 660.418 76.5817 664 81 664C76.5817 664 73 667.582 73 672C73 667.582 69.4183 664 65 664Z" fill="white"/>
<path d="M85 664C89.4183 664 93 660.418 93 656C93 660.418 96.5817 664 101 664C96.5817 664 93 667.582 93 672C93 667.582 89.4183 664 85 664Z" fill="white"/>
<path d="M105 664C109.418 664 113 660.418 113 656C113 660.418 116.582 664 121 664C116.582 664 113 667.582 113 672C113 667.582 109.418 664 105 664Z" fill="white"/>
<path d="M125 664C129.418 664 133 660.418 133 656C133 660.418 136.582 664 141 664C136.582 664 133 667.582 133 672C133 667.582 129.418 664 125 664Z" fill="white"/>
<path d="M145 664C149.418 664 153 660.418 153 656C153 660.418 156.582 664 161 664C156.582 664 153 667.582 153 672C153 667.582 149.418 664 145 664Z" fill="white"/>
<path d="M165 664C169.418 664 173 660.418 173 656C173 660.418 176.582 664 181 664C176.582 664 173 667.582 173 672C173 667.582 169.418 664 165 664Z" fill="white"/>
<path d="M185 664C189.418 664 193 660.418 193 656C193 660.418 196.582 664 201 664C196.582 664 193 667.582 193 672C193 667.582 189.418 664 185 664Z" fill="white"/>
<path d="M205 664C209.418 664 213 660.418 213 656C213 660.418 216.582 664 221 664C216.582 664 213 667.582 213 672C213 667.582 209.418 664 205 664Z" fill="white"/>
<path d="M225 664C229.418 664 233 660.418 233 656C233 660.418 236.582 664 241 664C236.582 664 233 667.582 233 672C233 667.582 229.418 664 225 664Z" fill="white"/>
<path d="M245 664C249.418 664 253 660.418 253 656C253 660.418 256.582 664 261 664C256.582 664 253 667.582 253 672C253 667.582 249.418 664 245 664Z" fill="white"/>
<path d="M265 664C269.418 664 273 660.418 273 656C273 660.418 276.582 664 281 664C276.582 664 273 667.582 273 672C273 667.582 269.418 664 265 664Z" fill="white"/>
<path d="M25 684C29.4183 684 33 680.418 33 676C33 680.418 36.5817 684 41 684C36.5817 684 33 687.582 33 692C33 687.582 29.4183 684 25 684Z" fill="white"/>
<path d="M45 684C49.4183 684 53 680.418 53 676C53 680.418 56.5817 684 61 684C56.5817 684 53 687.582 53 692C53 687.582 49.4183 684 45 684Z" fill="white"/>
<path d="M65 684C69.4183 684 73 680.418 73 676C73 680.418 76.5817 684 81 684C76.5817 684 73 687.582 73 692C73 687.582 69.4183 684 65 684Z" fill="white"/>
<path d="M85 684C89.4183 684 93 680.418 93 676C93 680.418 96.5817 684 101 684C96.5817 684 93 687.582 93 692C93 687.582 89.4183 684 85 684Z" fill="white"/>
<path d="M105 684C109.418 684 113 680.418 113 676C113 680.418 116.582 684 121 684C116.582 684 113 687.582 113 692C113 687.582 109.418 684 105 684Z" fill="white"/>
<path d="M125 684C129.418 684 133 680.418 133 676C133 680.418 136.582 684 141 684C136.582 684 133 687.582 133 692C133 687.582 129.418 684 125 684Z" fill="white"/>
<path d="M145 684C149.418 684 153 680.418 153 676C153 680.418 156.582 684 161 684C156.582 684 153 687.582 153 692C153 687.582 149.418 684 145 684Z" fill="white"/>
<path d="M165 684C169.418 684 173 680.418 173 676C173 680.418 176.582 684 181 684C176.582 684 173 687.582 173 692C173 687.582 169.418 684 165 684Z" fill="white"/>
<path d="M185 684C189.418 684 193 680.418 193 676C193 680.418 196.582 684 201 684C196.582 684 193 687.582 193 692C193 687.582 189.418 684 185 684Z" fill="white"/>
<path d="M205 684C209.418 684 213 680.418 213 676C213 680.418 216.582 684 221 684C216.582 684 213 687.582 213 692C213 687.582 209.418 684 205 684Z" fill="white"/>
<path d="M225 684C229.418 684 233 680.418 233 676C233 680.418 236.582 684 241 684C236.582 684 233 687.582 233 692C233 687.582 229.418 684 225 684Z" fill="white"/>
<path d="M245 684C249.418 684 253 680.418 253 676C253 680.418 256.582 684 261 684C256.582 684 253 687.582 253 692C253 687.582 249.418 684 245 684Z" fill="white"/>
<path d="M265 684C269.418 684 273 680.418 273 676C273 680.418 276.582 684 281 684C276.582 684 273 687.582 273 692C273 687.582 269.418 684 265 684Z" fill="white"/>
</g>
<circle opacity="0.03" cx="319" cy="49" r="48" fill="white"/>
<circle opacity="0.06" cx="319" cy="121" r="48" fill="white"/>
<circle opacity="0.09" cx="319" cy="193" r="48" fill="white"/>
</svg>
