<svg width="25" height="24" viewBox="0 0 25 24" fill="none" xmlns="http://www.w3.org/2000/svg">
<g clip-path="url(#clip0_280_1691)">
<path d="M24.0055 6.23876C23.7288 5.21063 22.9182 4.4002 21.8903 4.12335C20.0122 3.60938 12.4998 3.60938 12.4998 3.60938C12.4998 3.60938 4.98753 3.60938 3.10943 4.10376C2.10125 4.38043 1.27087 5.21081 0.9942 6.23876C0.5 8.11668 0.5 12.0113 0.5 12.0113C0.5 12.0113 0.5 15.9255 0.9942 17.7839C1.27105 18.8118 2.08148 19.6224 3.10961 19.8993C5.00731 20.4133 12.5 20.4133 12.5 20.4133C12.5 20.4133 20.0122 20.4133 21.8903 19.9189C22.9184 19.6422 23.7288 18.8316 24.0057 17.8036C24.4999 15.9255 24.4999 12.0311 24.4999 12.0311C24.4999 12.0311 24.5197 8.11668 24.0055 6.23876Z" fill="#FF0000"/>
<path d="M10.1079 15.6091L16.3549 12.0111L10.1079 8.41309V15.6091Z" fill="white"/>
</g>
<defs>
<clipPath id="clip0_280_1691">
<rect width="24" height="24" fill="white" transform="translate(0.5)"/>
</clipPath>
</defs>
</svg>
