<svg width="68" height="280" viewBox="0 0 68 280" fill="none" xmlns="http://www.w3.org/2000/svg">
<g clip-path="url(#clip0_247_13044)">
<path d="M30.3796 114.888C21.8105 99.8456 7.50932 90.3562 -5.07797 79.0205C-18.1837 67.2125 -31.8944 48.6346 -22.7492 30.4431C-21.741 28.4393 -24.4774 27.051 -25.7448 28.7972C-35.3509 42.1223 -31.3183 60.8147 -22.4611 73.4386C-12.2069 88.0376 3.20315 97.7416 14.6239 111.281C19.535 117.107 23.5819 123.948 25.1661 131.448C26.9232 139.835 24.4028 148.079 19.9094 155.193C10.0873 170.737 -7.20946 179.439 -20.4736 191.619C-34.0691 204.1 -45.9075 224.252 -36.0854 242.372C-33.9251 246.351 -28.1355 243.488 -29.014 239.395C-32.5281 222.935 -22.6483 208.007 -10.7955 197.616C2.62707 185.865 18.354 177.034 28.565 162.006C38.4879 147.407 39.064 130.16 30.3652 114.903L30.3796 114.888Z" fill="#263238"/>
<path d="M36.3276 40.5193C34.0089 39.3027 31.0709 39.4745 28.493 39.2598C26.0302 39.0451 23.5819 38.8447 21.1192 38.63C15.7905 38.172 10.4761 37.7283 5.14743 37.2703C-5.52442 36.3543 -16.1819 35.5957 -26.8825 35.0519C-29.374 34.923 -30.1661 38.63 -27.5594 38.9592C-16.7723 40.3189 -5.97088 41.4497 4.87379 42.4372C10.1881 42.9239 15.5024 43.4105 20.8311 43.8971L28.8098 44.6271C31.3014 44.8561 33.7497 45.3857 36.1548 44.6271C38.1135 44.0116 37.9695 41.3781 36.3276 40.5193Z" fill="#DBDBDB"/>
<path d="M30.25 54.3169C28.1185 52.8999 26.1167 53.086 23.5963 52.9429C21.3352 52.8141 19.0741 52.6709 16.7986 52.5278C11.7003 52.2129 6.60202 51.8837 1.51814 51.4686C-8.49121 50.6814 -18.4862 49.608 -28.5099 49.1643C-31.0879 49.0498 -31.88 52.6423 -29.2156 53.1862C-19.2207 55.2329 -9.05289 56.2634 1.10048 57.1651C5.99714 57.5945 10.8938 57.9953 15.7905 58.3245C18.426 58.4962 21.076 58.6393 23.7115 58.7825C26.1023 58.9113 27.9457 59.1832 30.106 58.0382C31.3878 57.3512 31.431 55.0898 30.25 54.3026V54.3169Z" fill="#DBDBDB"/>
<path d="M19.1174 72.0503C18.7141 71.1629 17.922 70.2183 16.8419 70.161C5.44995 69.4883 -5.92759 68.6296 -17.3339 67.9712C-19.8543 67.8281 -20.632 71.4349 -18.0252 71.9215C-12.4229 72.952 -6.84931 73.868 -1.17495 74.5121C4.48502 75.1419 10.1594 75.5712 15.8337 75.9434C16.7987 76.0006 18.0372 75.8432 18.6133 74.9129C19.2038 73.9825 19.6071 73.1524 19.1174 72.0646V72.0503Z" fill="#DBDBDB"/>
<path d="M17.3892 102.293C13.8175 101.005 9.15128 101.735 5.36356 101.721C1.48944 101.721 -2.39908 101.721 -6.2732 101.806C-14.3383 101.978 -22.389 102.379 -30.4397 102.923C-33.032 103.095 -32.6864 107.045 -30.094 106.916C-22.173 106.515 -14.2519 106.358 -6.31641 106.444C-2.42788 106.472 1.46064 106.558 5.34917 106.701C9.09367 106.844 13.5583 107.904 17.1876 106.959C19.2758 106.415 19.4055 103.023 17.3892 102.293Z" fill="#DBDBDB"/>
<path d="M29.0549 122.131C26.3042 121.214 23.7406 121.644 20.8891 121.63C17.735 121.601 14.581 121.486 11.427 121.443C5.34935 121.358 -0.742676 121.343 -6.8203 121.386C-19.2204 121.472 -31.5772 121.902 -43.9485 122.703C-46.8721 122.889 -46.44 127.226 -43.5741 127.169C-31.4044 126.882 -19.2204 126.725 -7.03632 126.754C-1.17473 126.768 4.68686 126.839 10.5485 126.968C13.7025 127.04 16.8709 127.083 20.0105 127.24C23.0349 127.383 25.8577 128.085 28.8245 127.326C31.1144 126.739 31.3161 122.903 29.0405 122.145L29.0549 122.131Z" fill="#DBDBDB"/>
<path d="M31.8058 139.52C25.7858 138.79 19.2617 139.706 13.2129 140.036C6.87603 140.393 0.524765 140.637 -5.81209 141.109C-18.4858 142.054 -31.1451 142.812 -43.8332 143.614C-46.6416 143.786 -46.224 147.936 -43.4732 147.908C-30.9579 147.75 -18.4714 147.435 -5.95611 147.507C0.179119 147.535 6.31435 147.292 12.4496 147.163C18.628 147.035 25.4401 147.535 31.5033 146.333C35.0606 145.632 36.04 140.021 31.8058 139.506V139.52Z" fill="#DBDBDB"/>
<path d="M18.0086 163.738C17.4901 162.292 16.1939 161.719 14.7681 161.662C11.1388 161.548 7.40874 162.278 3.77945 162.578C0.121353 162.879 -3.55114 163.108 -7.20924 163.28C-14.5254 163.609 -21.8704 163.666 -29.201 163.537C-31.7934 163.494 -31.995 167.845 -29.4026 168.06C-21.856 168.69 -14.295 169.005 -6.71957 168.99C-3.04708 168.99 0.639822 168.904 4.31232 168.761C8.22965 168.604 12.2766 168.633 16.1075 167.759C17.1445 167.516 18.0086 166.342 18.1526 165.341C18.239 164.768 18.2102 164.281 18.0086 163.738Z" fill="#DBDBDB"/>
<path d="M20.5002 199.147C18.6424 198.632 16.5109 199.061 14.6098 199.204C12.896 199.333 11.1821 199.462 9.46832 199.576C5.75262 199.848 2.05132 200.12 -1.66438 200.392C-9.08139 200.936 -16.4984 201.552 -23.9154 202.196C-27.6023 202.511 -27.0982 208.064 -23.4257 207.864C-15.9943 207.448 -8.56292 207.005 -1.13152 206.504C2.58419 206.246 6.29989 206.003 10.0012 205.745C11.715 205.631 13.4288 205.516 15.1427 205.387C17.0725 205.259 19.1896 205.387 20.9755 204.586C23.683 203.398 23.251 199.891 20.5002 199.133V199.147Z" fill="#DBDBDB"/>
<path d="M40.9799 219.729C38.1283 219.085 35.0463 219.514 32.1227 219.557C28.9254 219.6 25.7282 219.672 22.531 219.758C16.367 219.929 10.1885 220.058 4.03889 220.302C-8.4764 220.803 -21.1213 220.888 -33.5646 222.277C-36.9778 222.649 -36.3874 227.315 -33.1181 227.429C-20.5884 227.859 -7.94353 227.014 4.58617 226.571C10.7502 226.356 16.8998 226.012 23.0639 225.712C26.2611 225.554 29.4439 225.397 32.6412 225.197C35.5791 225.01 38.6036 225.168 41.4263 224.309C43.8315 223.565 43.2122 220.244 41.0231 219.743L40.9799 219.729Z" fill="#DBDBDB"/>
<path d="M33.6347 199.763C18.1382 185.608 -2.94629 180.069 -19.6814 167.788C-32.7583 158.184 -45.3312 141.696 -38.5479 124.793C-31.3181 106.759 -11.4434 98.3572 4.08186 88.8535C13.5871 83.0425 22.3723 76.0293 28.5796 66.6831C34.9596 57.0792 37.984 46.4878 38.6897 35.0662C38.8626 32.3182 34.7004 31.4594 34.3403 34.322C33.0442 44.3981 28.4931 54.231 22.2571 62.2604C16.1795 70.0752 8.1 75.6142 -0.425953 80.5092C-17.2474 90.1846 -35.8259 98.0852 -46.0369 115.561C-55.7726 132.221 -50.804 151.629 -38.4759 165.427C-24.7076 180.856 -5.38022 187.898 12.1902 197.959C21.1914 203.112 29.4149 209.453 35.1612 218.169C40.6484 226.485 42.0166 235.359 41.2533 245.134C40.8788 249.943 46.9132 251.933 49.3328 247.625C58.4924 231.294 45.7035 210.784 33.6491 199.777L33.6347 199.763Z" fill="#A6CCE4"/>
<path d="M67.8824 260.034H-68V280H67.8824V260.034Z" fill="#263238"/>
<path d="M67.8824 0H-68V19.9663H67.8824V0Z" fill="#263238"/>
<path d="M61.1567 14.7993V264.37" stroke="#263238" stroke-width="1.47" stroke-miterlimit="10"/>
<path d="M41.0805 77.532C33.3898 77.532 33.3898 89.3829 41.0805 89.3829C48.7711 89.3829 48.7711 77.532 41.0805 77.532Z" fill="#A6CCE4"/>
<path d="M16.1508 239.652C8.46015 239.652 8.46015 251.503 16.1508 251.503C23.8414 251.503 23.8414 239.652 16.1508 239.652Z" fill="#A6CCE4"/>
<path d="M50.3839 35.3096C45.1272 35.3096 45.1272 43.4106 50.3839 43.4106C55.6406 43.4106 55.6406 35.3096 50.3839 35.3096Z" fill="#38474F"/>
<path d="M42.7798 172.655C39.6978 172.655 39.6978 177.392 42.7798 177.392C45.8618 177.392 45.8618 172.655 42.7798 172.655Z" fill="#263238"/>
<path d="M49.1167 131.062C46.0347 131.062 46.0347 135.799 49.1167 135.799C52.1987 135.799 52.1987 131.062 49.1167 131.062Z" fill="#DBDBDB"/>
</g>
<defs>
<clipPath id="clip0_247_13044">
<rect width="135.882" height="280" fill="white" transform="translate(-68)"/>
</clipPath>
</defs>
</svg>
