<svg width="1920" height="1100" viewBox="0 0 1920 1100" fill="none" xmlns="http://www.w3.org/2000/svg">
<rect width="1920" height="1100" fill="#D9E2FA"/>
<g opacity="0.15">
<mask id="mask0_363_2441" style="mask-type:luminance" maskUnits="userSpaceOnUse" x="0" y="0" width="1920" height="1100">
<path d="M1920 0H0V1100H1920V0Z" fill="white"/>
</mask>
<g mask="url(#mask0_363_2441)">
<path d="M1999.58 194.719C1895.17 172.789 1811.86 92.4482 1698.61 80.1967C1526.36 61.5658 1395.85 205.324 1221.77 203.356C1053.1 201.449 928.042 63.5688 760.23 73.9201C628.606 82.042 538.314 179.854 406.566 187.071C332.42 191.132 261.853 165.195 198.319 138.079C113.22 101.777 16.229 57.4157 -86.3516 83.1121V1196.76H1999.58V194.719Z" fill="#E0FFFF"/>
<path d="M1999.58 210.051C1960.31 187.503 1918.98 169.407 1868.94 167.85C1736.04 163.714 1652.01 279.622 1519.36 284.938C1383.69 290.378 1291.39 179.635 1156.81 165.079C984.556 146.448 854.046 290.206 679.968 288.238C511.295 286.331 386.239 148.451 218.428 158.802C103.716 165.881 20.382 241.07 -86.3516 265.052V1196.76H1999.58V210.051Z" fill="#B5F6FF"/>
<path d="M1999.58 321.308C1900.49 366.397 1810.26 430.631 1697.49 414.86C1571 397.176 1499.89 283.895 1371.16 279.889C1238.26 275.753 1154.23 391.661 1021.58 396.977C885.902 402.417 793.605 291.674 659.025 277.118C486.774 258.487 356.264 402.246 182.186 400.277C83.5122 399.159 -0.239457 351.511 -86.3584 314.229V1196.76H1999.57V321.308H1999.58Z" fill="#75E2FF"/>
<path d="M1999.58 489.645C1938.73 459.339 1878.89 424.094 1806.97 416.315C1634.72 397.684 1504.21 541.443 1330.13 539.474C1161.46 537.567 1036.4 399.687 868.592 410.038C736.968 418.16 646.675 515.973 514.928 523.189C440.782 527.25 370.215 501.313 306.681 474.204C220.549 437.45 122.251 392.402 18.2884 420.136C-38.6293 435.316 -70.9847 460.059 -86.3516 497.829V1196.76H1999.58V489.645Z" fill="#37C8FF"/>
<path d="M1999.58 624.164C1935.43 655.184 1870.53 679.954 1795.69 669.493C1669.2 651.809 1598.09 538.528 1469.36 534.521C1336.46 530.385 1252.43 646.293 1119.78 651.61C984.104 657.049 891.807 546.306 757.227 531.75C584.975 513.119 454.466 656.878 280.388 654.909C144.925 653.379 37.5825 564.162 -86.3584 534.446V1196.76H1999.57V624.164H1999.58Z" fill="#0096F9"/>
<path d="M1999.58 701.061C1911.02 731.182 1837.85 800.307 1736.08 804.381C1600.41 809.821 1508.11 699.078 1373.53 684.522C1201.28 665.891 1070.77 809.65 896.692 807.681C728.019 805.774 602.963 667.894 435.151 678.245C303.527 686.367 213.235 784.18 81.487 791.396C22.7151 794.62 -33.7921 778.966 -86.3516 758.847V1196.76H1999.58V701.061Z" fill="#0074E0"/>
<path d="M1999.58 942.981C1983.55 947.001 1966.91 949.669 1949.41 950.369C1813.74 955.809 1721.44 845.066 1586.86 830.51C1414.61 811.879 1284.1 955.637 1110.02 953.669C941.349 951.762 816.293 813.882 648.482 824.233C516.857 832.355 426.565 930.167 294.817 937.384C220.672 941.445 150.104 915.508 86.5705 888.399C33.1011 865.583 -25.0619 839.585 -86.3516 829.769V1196.76H1999.58V942.981Z" fill="#004EB5"/>
</g>
</g>
</svg>
