<svg width="1920" height="1323" viewBox="0 0 1920 1323" fill="none" xmlns="http://www.w3.org/2000/svg">
<g clip-path="url(#clip0_323_1050)">
<rect width="1920" height="1323" fill="#D9E2FA"/>
<path d="M1576.52 24.4368L1723.08 -7H1710.87L1577.32 21.6464L1576.52 24.4368Z" fill="white"/>
<path d="M1568.64 52.4176L1845.66 -7H1833.45L1569.43 49.6272L1568.64 52.4176Z" fill="white"/>
<path d="M1560.73 80.3984L1920 3.3424V0.731201L1561.52 77.608L1560.73 80.3984Z" fill="white"/>
<path d="M1552.84 108.379L1920 29.6336V26.9968L1553.64 105.589L1552.84 108.379Z" fill="white"/>
<path d="M1544.93 136.334L1920 55.8992V53.288L1545.73 133.57L1544.93 136.334Z" fill="white"/>
<path d="M1537.05 164.315L1920 82.1904V79.5792L1537.84 161.525L1537.05 164.315Z" fill="white"/>
<path d="M1529.14 192.296L1920 108.482V105.845L1529.93 189.506L1529.14 192.296Z" fill="white"/>
<path d="M1521.25 220.277L1920 134.773V132.136L1522.05 217.486L1521.25 220.277Z" fill="white"/>
<path d="M1527.53 245.211L1920 161.038V158.427L1522.25 243.726L1527.53 245.211Z" fill="white"/>
<path d="M1580.44 260.162L1920 187.33V184.718L1575.17 258.677L1580.44 260.162Z" fill="white"/>
<path d="M1633.36 275.086L1920 213.621V211.01L1628.08 273.602L1633.36 275.086Z" fill="white"/>
<path d="M1686.27 290.037L1920 239.912V237.275L1681 288.526L1686.27 290.037Z" fill="white"/>
<path d="M1739.19 304.962L1920 266.178V263.566L1733.91 303.477L1739.19 304.962Z" fill="white"/>
<path d="M1792.1 319.912L1920 292.469V289.858L1786.83 318.402L1792.1 319.912Z" fill="white"/>
<path d="M1845.02 334.837L1920 318.76V316.123L1839.74 333.352L1845.02 334.837Z" fill="white"/>
<path d="M1897.91 349.762L1920 345.026V342.414L1892.63 348.277L1897.91 349.762Z" fill="white"/>
<path d="M374.298 -0.599976L0 0.526425V3.08642L375.654 1.96002L374.298 -0.599976Z" fill="white"/>
<path d="M387.968 25.0768L0 26.2288V28.7888L389.325 27.6112L387.968 25.0768Z" fill="white"/>
<path d="M401.638 50.728L0 51.9312V54.4912L402.995 53.288L401.638 50.728Z" fill="white"/>
<path d="M415.283 76.3792L0 77.6336V80.1936L416.666 78.9392L415.283 76.3792Z" fill="white"/>
<path d="M428.954 102.056L0 103.336V105.896L430.31 104.59L428.954 102.056Z" fill="white"/>
<path d="M442.624 127.707L0 129.038V131.598L443.981 130.267L442.624 127.707Z" fill="white"/>
<path d="M456.294 153.358L0 154.741V157.301L457.651 155.918L456.294 153.358Z" fill="white"/>
<path d="M469.965 179.01L0 180.418V182.978L471.322 181.57L469.965 179.01Z" fill="white"/>
<path d="M483.61 204.686L0 206.12V208.68L484.992 207.246L483.61 204.686Z" fill="white"/>
<path d="M488.986 230.363L0 231.822V234.382L484.147 232.949L488.986 230.363Z" fill="white"/>
<path d="M440.474 256.219L0 257.525V260.085L435.635 258.779L440.474 256.219Z" fill="white"/>
<path d="M391.936 282.05L0 283.227V285.787L387.098 284.635L391.936 282.05Z" fill="white"/>
<path d="M343.398 307.906L0 308.93V311.49L338.56 310.466L343.398 307.906Z" fill="white"/>
<path d="M294.886 333.736L0 334.632V337.192L290.048 336.322L294.886 333.736Z" fill="white"/>
<path d="M246.349 359.592L0 360.334V362.894L241.51 362.178L246.349 359.592Z" fill="white"/>
<path d="M197.811 385.448L0 386.037V388.597L192.998 388.008L197.811 385.448Z" fill="white"/>
<path d="M149.299 411.278L0 411.739V414.299L144.461 413.864L149.299 411.278Z" fill="white"/>
<path d="M100.762 437.134L0 437.442V440.002L95.9232 439.694L100.762 437.134Z" fill="white"/>
<path d="M52.2496 462.965L0 463.118V465.704L47.4112 465.55L52.2496 462.965Z" fill="white"/>
<path d="M0 488.821V490.792L3.712 488.821H0Z" fill="white"/>
<path d="M461.065 425.597L444.737 441.925L461.065 458.253L477.393 441.925L461.065 425.597Z" stroke="#FFDF4B" stroke-miterlimit="10"/>
<path d="M1279.81 9.3196L1263.48 25.6475L1279.81 41.9755L1296.13 25.6475L1279.81 9.3196Z" stroke="#FFDF4B" stroke-miterlimit="10"/>
<path d="M830.909 1079.13L814.581 1095.45L830.909 1111.78L847.237 1095.45L830.909 1079.13Z" stroke="#FFDF4B" stroke-miterlimit="10"/>
<path d="M414.176 744.912L397.848 761.24L414.176 777.568L430.504 761.24L414.176 744.912Z" stroke="#FFDF4B" stroke-miterlimit="10"/>
<path d="M1160.6 865.753L1144.27 882.081L1160.6 898.409L1176.92 882.081L1160.6 865.753Z" stroke="#FFDF4B" stroke-miterlimit="10"/>
<path d="M1573.99 383.674L1557.66 400.002L1573.99 416.33L1590.32 400.002L1573.99 383.674Z" stroke="#FFDF4B" stroke-miterlimit="10"/>
<path d="M1371.96 1028.4L1348.94 1048.03C1348.17 1048.7 1347.48 1049.41 1346.84 1050.16C1363.76 1052.05 1384.65 1054.3 1396.99 1055.2C1403.55 1048.49 1404.06 1037.69 1397.86 1030.42C1391.31 1022.74 1379.66 1021.82 1371.96 1028.37V1028.4Z" fill="white"/>
<path d="M1008.12 881.16C1005.33 890.862 995.115 896.546 985.387 893.755L956.306 885.41C946.603 882.619 940.92 872.405 943.71 862.677C946.501 852.974 956.715 847.291 966.443 850.082L995.525 858.427C1005.23 861.218 1010.91 871.432 1008.12 881.16Z" stroke="white" stroke-miterlimit="10"/>
<path d="M604.993 1014.72L584.123 996L553.447 1030.2C548.283 1028.3 542.712 1027.26 536.89 1027.26C510.431 1027.26 489 1048.71 489 1075.15C489 1101.59 510.45 1123.04 536.89 1123.04C563.33 1123.04 584.781 1101.59 584.781 1075.15C584.781 1064.74 581.454 1055.11 575.806 1047.26L604.993 1014.72Z" fill="white"/>
<path d="M579.384 1000.62L600.64 1018.88" stroke="#D9E2FA" stroke-width="4" stroke-miterlimit="10"/>
<path d="M518.787 1043.89C507.104 1050.29 499.193 1062.69 499.193 1076.95C499.193 1097.74 516.059 1114.6 536.852 1114.6C552.925 1114.6 566.599 1104.53 571.996 1090.37L518.787 1043.91V1043.89Z" fill="#B6E6FC"/>
<path d="M1879.81 756.218L1999.93 833.585L1845.51 916.339L1850.9 772.831L1810 701.923L1841.22 685C1840.91 685.141 1879.84 756.218 1879.84 756.218H1879.81Z" fill="white"/>
<path d="M1923.41 797.059L1857.64 829.777L1856.23 898.203L1978.61 833.698L1923.41 797.059Z" fill="#FFDF4B"/>
<path d="M1846.19 695.238L1814.77 710.3" stroke="#D9E2FA" stroke-width="4" stroke-miterlimit="10"/>
<path d="M884.608 469.486C891.903 469.486 897.818 463.572 897.818 456.277C897.818 448.981 891.903 443.067 884.608 443.067C877.313 443.067 871.398 448.981 871.398 456.277C871.398 463.572 877.313 469.486 884.608 469.486Z" fill="white"/>
<path d="M1318.81 475.502C1318.81 482.798 1312.9 488.712 1305.6 488.712C1298.3 488.712 1292.39 482.798 1292.39 475.502C1292.39 468.206 1298.3 462.293 1305.6 462.293C1312.9 462.293 1318.81 468.206 1318.81 475.502Z" fill="white"/>
<path d="M802.023 968.635C809.319 968.635 815.233 962.721 815.233 955.426C815.233 948.13 809.319 942.216 802.023 942.216C794.728 942.216 788.813 948.13 788.813 955.426C788.813 962.721 794.728 968.635 802.023 968.635Z" fill="white"/>
<path d="M1480.24 1152.42C1487.54 1152.42 1493.45 1146.51 1493.45 1139.21C1493.45 1131.91 1487.54 1126 1480.24 1126C1472.95 1126 1467.03 1131.91 1467.03 1139.21C1467.03 1146.51 1472.95 1152.42 1480.24 1152.42Z" fill="white"/>
<g clip-path="url(#clip1_323_1050)">
<path d="M63.7548 202.869C65.2664 208.51 62.4769 215.298 55.0242 221.904C40.1257 235.118 12.2316 242.593 -7.27816 238.598C-17.035 236.604 -22.8463 232.114 -24.3564 226.478L-4.96568 298.846C-3.45554 304.482 2.35574 308.971 12.1126 310.965C31.6224 314.96 59.5165 307.486 74.415 294.271C81.8677 287.666 84.6558 280.872 83.1456 275.236L63.7548 202.869Z" fill="white"/>
<path d="M45.6066 311.351C33.4942 314.597 21.4294 315.283 11.6413 313.28C1.28421 311.158 -5.42443 306.251 -7.24498 299.456L-26.6357 227.089L-22.0774 225.868C-20.7434 230.846 -15.3229 234.545 -6.80568 236.288C2.27909 238.145 13.5717 237.486 24.9891 234.427C36.4064 231.368 46.5221 226.295 53.4546 220.141C59.9539 214.375 62.8042 208.46 61.4702 203.481L66.0285 202.26L85.4192 274.627C87.2398 281.421 83.8835 289.026 75.975 296.042C68.4997 302.67 57.7137 308.107 45.5959 311.354L45.6066 311.351ZM-19.2116 236.563L-2.68666 298.235C-1.35265 303.214 4.06782 306.912 12.5851 308.655C21.6699 310.512 32.9625 309.854 44.3799 306.794C55.7972 303.735 65.9128 298.663 72.8454 292.509C79.3447 286.742 82.1949 280.827 80.8609 275.849L64.336 214.177C62.6754 217.376 60.0692 220.581 56.5896 223.673C49.1143 230.302 38.3283 235.739 26.2105 238.985C14.0927 242.232 2.03328 242.917 -7.75486 240.914C-12.3197 239.977 -16.1738 238.504 -19.2116 236.563Z" fill="white"/>
<path d="M44.9965 309.072C69.3263 302.553 86.4064 287.404 83.146 275.236C79.8857 263.068 57.5194 258.489 33.1897 265.008C8.8599 271.528 -8.22023 286.676 -4.95986 298.844C-1.69949 311.012 20.6667 315.591 44.9965 309.072Z" fill="white"/>
<path d="M45.6069 311.351C33.4945 314.597 21.4297 315.283 11.6416 313.28C1.28452 311.158 -5.42412 306.251 -7.24467 299.456C-9.06522 292.662 -5.70892 285.058 2.19959 278.042C9.67487 271.413 20.4609 265.976 32.5787 262.729C44.6965 259.482 56.7559 258.798 66.5441 260.801C76.9011 262.923 83.6098 267.83 85.4303 274.624C87.2509 281.419 83.8946 289.023 75.9861 296.039C68.5108 302.668 57.7247 308.104 45.6069 311.351ZM33.8001 267.288C22.3774 270.348 12.2671 275.419 5.33458 281.573C-1.16474 287.34 -4.01497 293.255 -2.68097 298.234C-1.34696 303.212 4.07351 306.911 12.5908 308.654C21.6755 310.51 32.9682 309.852 44.3855 306.793C55.8029 303.734 65.9171 298.656 72.8511 292.507C79.3504 286.741 82.2006 280.826 80.8666 275.847C79.5326 270.868 74.1121 267.17 65.5949 265.427C56.5087 263.565 45.2174 264.228 33.8001 267.288Z" fill="white"/>
<g opacity="0.5">
<path d="M33.4741 266.07C57.8038 259.551 74.884 244.402 71.6236 232.234C68.3632 220.066 45.997 215.487 21.6672 222.006C-2.66256 228.525 -19.7427 243.674 -16.4823 255.842C-13.222 268.01 9.14428 272.589 33.4741 266.07Z" fill="#FF9FB3"/>
</g>
<g opacity="0.5">
<path d="M71.623 232.234C73.1331 237.87 70.3451 244.663 62.8924 251.269C47.9939 264.483 20.0998 271.958 0.590003 267.963C-9.16686 265.969 -14.9781 261.479 -16.4883 255.843L-4.96586 298.846C-3.45571 304.482 2.35557 308.971 12.1124 310.965C31.6222 314.96 59.5163 307.486 74.4148 294.271C81.8675 287.666 84.6556 280.872 83.1454 275.236L71.623 232.234Z" fill="#FF9FB3"/>
</g>
<path d="M34.0845 268.349C21.9721 271.595 9.90727 272.281 0.119139 270.278C-10.2379 268.156 -16.9466 263.248 -18.7671 256.454C-20.5877 249.66 -17.2314 242.056 -9.32287 235.039C-1.84759 228.411 8.93845 222.974 21.0562 219.727C33.174 216.48 45.2335 215.795 55.0216 217.798C65.3787 219.92 72.0873 224.828 73.9079 231.622C75.7284 238.416 72.3721 246.02 64.4636 253.036C56.9883 259.665 46.2023 265.102 34.0845 268.349ZM22.2776 224.285C10.8549 227.346 0.746113 232.422 -6.18788 238.571C-12.6872 244.338 -15.5374 250.253 -14.2034 255.231C-12.8694 260.21 -7.44895 263.909 1.06832 265.652C10.1531 267.508 21.4457 266.85 32.8631 263.791C44.2804 260.731 54.3946 255.654 61.3286 249.505C67.8279 243.738 70.6782 237.823 69.3442 232.845C68.0101 227.866 62.5897 224.167 54.0724 222.424C44.9876 220.568 33.695 221.226 22.2776 224.285Z" fill="white"/>
<path d="M45.6074 311.351C33.495 314.597 21.4302 315.283 11.6421 313.28C1.28501 311.158 -5.42363 306.251 -7.24418 299.456L-18.7666 256.454L-14.2083 255.233C-12.8743 260.211 -7.45381 263.91 1.06346 265.653C10.1482 267.51 21.4409 266.851 32.8582 263.792C44.2756 260.733 54.3898 255.655 61.3238 249.506C67.8231 243.74 70.6733 237.825 69.3393 232.846L73.8976 231.625L85.42 274.627C87.2406 281.421 83.8843 289.025 75.9758 296.042C68.5005 302.67 57.7145 308.107 45.5967 311.354L45.6074 311.351ZM-11.3425 265.928L-2.68586 298.235C-1.35185 303.214 4.06862 306.912 12.5859 308.655C21.6707 310.512 32.9633 309.854 44.3807 306.794C55.798 303.735 65.9122 298.657 72.8462 292.509C79.3455 286.742 82.1957 280.827 80.8617 275.848L72.2051 243.542C70.5446 246.741 67.9383 249.946 64.4587 253.038C56.9835 259.667 46.1974 265.104 34.0796 268.35C21.9618 271.597 9.90242 272.282 0.11428 270.279C-4.45057 269.342 -8.30461 267.869 -11.3425 265.928Z" fill="white"/>
<path d="M26.2178 238.989C14.1054 242.235 2.04056 242.921 -7.74758 240.918C-18.1061 238.791 -24.8147 233.883 -26.6353 227.089C-28.4558 220.295 -25.0995 212.691 -17.191 205.675C-9.71576 199.046 1.07029 193.609 13.1881 190.362C25.3059 187.115 37.3653 186.43 47.1534 188.433C57.5105 190.555 64.2192 195.463 66.0397 202.257C67.8602 209.051 64.504 216.655 56.5954 223.672C49.1202 230.3 38.3341 235.737 26.2163 238.984L26.2178 238.989ZM14.4109 194.926C2.98819 197.986 -7.12061 203.063 -14.0546 209.211C-20.5539 214.978 -23.4042 220.893 -22.0701 225.872C-20.7361 230.85 -15.3157 234.549 -6.7984 236.292C2.28637 238.149 13.579 237.49 24.9964 234.431C36.4137 231.372 46.5279 226.294 53.4619 220.145C59.9612 214.379 62.8114 208.464 61.4774 203.485C60.1434 198.507 54.723 194.808 46.2057 193.065C37.1209 191.208 25.8283 191.866 14.4109 194.926Z" fill="white"/>
<path d="M50.3943 247.746C52.5549 246.088 52.9624 242.993 51.3046 240.832C49.6467 238.672 46.5512 238.264 44.3906 239.922C42.23 241.58 41.8225 244.675 43.4804 246.836C45.1382 248.997 48.2337 249.404 50.3943 247.746Z" fill="white"/>
<path d="M49.28 250.874C45.3952 251.915 41.3918 249.604 40.3508 245.719C39.3099 241.834 41.6213 237.83 45.5061 236.79C49.3909 235.749 53.3943 238.06 54.4353 241.945C55.4762 245.83 53.1648 249.833 49.28 250.874ZM46.7275 241.348C45.3589 241.715 44.5424 243.129 44.9091 244.497C45.2758 245.866 46.69 246.682 48.0586 246.316C49.4272 245.949 50.2437 244.535 49.877 243.166C49.5102 241.798 48.0961 240.981 46.7275 241.348Z" fill="white"/>
<path d="M19.5028 293.249C19.4356 291.011 17.5663 289.25 15.3276 289.317C13.0889 289.385 11.3286 291.254 11.3959 293.493C11.4631 295.731 13.3324 297.492 15.5711 297.424C17.8098 297.357 19.5701 295.488 19.5028 293.249Z" fill="white"/>
<path d="M17.1126 299.577C13.6965 300.492 10.1713 298.457 9.256 295.041C8.34067 291.625 10.376 288.1 13.792 287.184C17.208 286.269 20.7333 288.304 21.6486 291.72C22.5639 295.136 20.5286 298.662 17.1126 299.577ZM15.012 291.737C14.1068 291.98 13.5703 292.909 13.8129 293.814C14.0554 294.719 14.9845 295.256 15.8897 295.013C16.7949 294.771 17.3314 293.842 17.0888 292.936C16.8463 292.031 15.9171 291.495 15.012 291.737Z" fill="white"/>
<path d="M29.7098 296.202C29.4135 296.281 29.0905 296.304 28.7663 296.258C27.4751 296.073 26.5782 294.881 26.7635 293.59L45.2131 163.861C45.3984 162.57 46.5903 161.673 47.8816 161.859C49.1728 162.044 50.0697 163.236 49.8844 164.527L31.4333 294.25C31.294 295.217 30.592 295.959 29.7084 296.196L29.7098 296.202Z" fill="white"/>
</g>
<path d="M904.528 242.218L892.712 286.316" stroke="white" stroke-width="2" stroke-linecap="round" stroke-linejoin="round"/>
<path d="M848.61 298.14L892.711 286.316L924.992 318.606" stroke="white" stroke-width="2" stroke-linecap="round" stroke-linejoin="round"/>
<path d="M860.427 254.042L848.74 297.658L880.891 330.43L892.712 286.316L860.427 254.042Z" stroke="white" stroke-width="2" stroke-linecap="round" stroke-linejoin="round"/>
<path d="M892.711 286.316L936.808 274.508L924.992 318.606L880.891 330.43L892.711 286.316Z" stroke="white" stroke-width="2" stroke-linecap="round" stroke-linejoin="round"/>
<path d="M860.427 254.042L904.528 242.218L936.808 274.508L892.711 286.316L860.427 254.042Z" stroke="white" stroke-width="2" stroke-linecap="round" stroke-linejoin="round"/>
<path d="M897.432 287.581C896.735 290.181 894.064 291.737 891.447 291.036C888.831 290.334 887.291 287.668 887.992 285.051C888.693 282.435 891.36 280.895 893.977 281.596C896.593 282.297 898.133 284.964 897.432 287.581Z" fill="#FFEB8A"/>
<path d="M885.894 330.635C885.198 333.236 882.527 334.792 879.91 334.09C877.293 333.389 875.754 330.723 876.455 328.106C877.156 325.489 879.823 323.95 882.439 324.651C885.056 325.352 886.596 328.019 885.894 330.635Z" fill="#F5AD76"/>
<path d="M909.248 243.482C908.551 246.083 905.88 247.638 903.264 246.937C900.647 246.236 899.107 243.57 899.809 240.953C900.51 238.336 903.176 236.797 905.793 237.498C908.41 238.199 909.949 240.866 909.248 243.482Z" fill="#FFEB8A"/>
<path d="M929.712 319.871C929.015 322.471 926.344 324.027 923.728 323.326C921.111 322.625 919.571 319.958 920.272 317.342C920.974 314.725 923.64 313.185 926.257 313.887C928.873 314.588 930.413 317.254 929.712 319.871Z" fill="#FFEB8A"/>
<path d="M847.346 302.86C849.952 303.558 852.632 302.011 853.33 299.405C854.028 296.798 852.482 294.119 849.875 293.42C847.268 292.722 844.589 294.269 843.891 296.875C843.192 299.482 844.739 302.161 847.346 302.86Z" fill="#FFEB8A"/>
<path d="M859.162 258.761C861.769 259.46 864.448 257.913 865.146 255.306C865.845 252.7 864.298 250.02 861.691 249.322C859.085 248.623 856.405 250.17 855.707 252.777C855.009 255.384 856.555 258.063 859.162 258.761Z" fill="#F5AD76"/>
<path d="M941.528 275.773C940.831 278.373 938.161 279.929 935.544 279.228C932.927 278.526 931.388 275.86 932.089 273.243C932.79 270.627 935.456 269.087 938.073 269.788C940.69 270.489 942.229 273.156 941.528 275.773Z" fill="#F5AD76"/>
</g>
<defs>
<clipPath id="clip0_323_1050">
<rect width="1920" height="1323" fill="white"/>
</clipPath>
<clipPath id="clip1_323_1050">
<rect width="95.9386" height="144" fill="white" transform="translate(-38 184.674) rotate(-15)"/>
</clipPath>
</defs>
</svg>
