<svg width="1922" height="559" viewBox="0 0 1922 559" fill="none" xmlns="http://www.w3.org/2000/svg">
<path fill-rule="evenodd" clip-rule="evenodd" d="M1328 82.0001L1247 1L1 1.0002L1.00001 85.0001V558H1921V82.0001H1328Z" fill="#3C4EF1"/>
<path d="M1328 82.0001L1327.65 82.3537L1327.79 82.5001H1328V82.0001ZM1247 1L1247.35 0.646447L1247.21 0.5L1247 0.5L1247 1ZM1 1.0002L1 0.5002L0.5 0.500201L0.5 1.0002L1 1.0002ZM1.00001 85.0001L1.50001 85.0001L1.50001 85.0001L1.00001 85.0001ZM1.00001 558H0.500007V558.5H1.00001V558ZM1921 558V558.5H1921.5V558H1921ZM1921 82.0001H1921.5V81.5001H1921V82.0001ZM1328.35 81.6466L1247.35 0.646447L1246.65 1.35355L1327.65 82.3537L1328.35 81.6466ZM1247 0.5L1 0.5002L1 1.5002L1247 1.5L1247 0.5ZM0.5 1.0002L0.500007 85.0001L1.50001 85.0001L1.5 1.0002L0.5 1.0002ZM1.50001 558V85.0001H0.500007V558H1.50001ZM1921 557.5H1.00001V558.5H1921V557.5ZM1920.5 82.0001V558H1921.5V82.0001H1920.5ZM1328 82.5001H1921V81.5001H1328V82.5001Z" fill="#3C4EF1"/>
<g opacity="0.2">
<path d="M41 49C45.4183 49 49 45.4183 49 41C49 45.4183 52.5817 49 57 49C52.5817 49 49 52.5817 49 57C49 52.5817 45.4183 49 41 49Z" fill="white"/>
<path d="M61 49C65.4183 49 69 45.4183 69 41C69 45.4183 72.5817 49 77 49C72.5817 49 69 52.5817 69 57C69 52.5817 65.4183 49 61 49Z" fill="white"/>
<path d="M81 49C85.4183 49 89 45.4183 89 41C89 45.4183 92.5817 49 97 49C92.5817 49 89 52.5817 89 57C89 52.5817 85.4183 49 81 49Z" fill="white"/>
<path d="M101 49C105.418 49 109 45.4183 109 41C109 45.4183 112.582 49 117 49C112.582 49 109 52.5817 109 57C109 52.5817 105.418 49 101 49Z" fill="white"/>
<path d="M121 49C125.418 49 129 45.4183 129 41C129 45.4183 132.582 49 137 49C132.582 49 129 52.5817 129 57C129 52.5817 125.418 49 121 49Z" fill="white"/>
<path d="M141 49C145.418 49 149 45.4183 149 41C149 45.4183 152.582 49 157 49C152.582 49 149 52.5817 149 57C149 52.5817 145.418 49 141 49Z" fill="white"/>
<path d="M161 49C165.418 49 169 45.4183 169 41C169 45.4183 172.582 49 177 49C172.582 49 169 52.5817 169 57C169 52.5817 165.418 49 161 49Z" fill="white"/>
<path d="M181 49C185.418 49 189 45.4183 189 41C189 45.4183 192.582 49 197 49C192.582 49 189 52.5817 189 57C189 52.5817 185.418 49 181 49Z" fill="white"/>
<path d="M201 49C205.418 49 209 45.4183 209 41C209 45.4183 212.582 49 217 49C212.582 49 209 52.5817 209 57C209 52.5817 205.418 49 201 49Z" fill="white"/>
<path d="M221 49C225.418 49 229 45.4183 229 41C229 45.4183 232.582 49 237 49C232.582 49 229 52.5817 229 57C229 52.5817 225.418 49 221 49Z" fill="white"/>
<path d="M241 49C245.418 49 249 45.4183 249 41C249 45.4183 252.582 49 257 49C252.582 49 249 52.5817 249 57C249 52.5817 245.418 49 241 49Z" fill="white"/>
<path d="M261 49C265.418 49 269 45.4183 269 41C269 45.4183 272.582 49 277 49C272.582 49 269 52.5817 269 57C269 52.5817 265.418 49 261 49Z" fill="white"/>
<path d="M281 49C285.418 49 289 45.4183 289 41C289 45.4183 292.582 49 297 49C292.582 49 289 52.5817 289 57C289 52.5817 285.418 49 281 49Z" fill="white"/>
<path d="M301 49C305.418 49 309 45.4183 309 41C309 45.4183 312.582 49 317 49C312.582 49 309 52.5817 309 57C309 52.5817 305.418 49 301 49Z" fill="white"/>
<path d="M321 49C325.418 49 329 45.4183 329 41C329 45.4183 332.582 49 337 49C332.582 49 329 52.5817 329 57C329 52.5817 325.418 49 321 49Z" fill="white"/>
<path d="M341 49C345.418 49 349 45.4183 349 41C349 45.4183 352.582 49 357 49C352.582 49 349 52.5817 349 57C349 52.5817 345.418 49 341 49Z" fill="white"/>
<path d="M361 49C365.418 49 369 45.4183 369 41C369 45.4183 372.582 49 377 49C372.582 49 369 52.5817 369 57C369 52.5817 365.418 49 361 49Z" fill="white"/>
<path d="M381 49C385.418 49 389 45.4183 389 41C389 45.4183 392.582 49 397 49C392.582 49 389 52.5817 389 57C389 52.5817 385.418 49 381 49Z" fill="white"/>
<path d="M41 69C45.4183 69 49 65.4183 49 61C49 65.4183 52.5817 69 57 69C52.5817 69 49 72.5817 49 77C49 72.5817 45.4183 69 41 69Z" fill="white"/>
<path d="M61 69C65.4183 69 69 65.4183 69 61C69 65.4183 72.5817 69 77 69C72.5817 69 69 72.5817 69 77C69 72.5817 65.4183 69 61 69Z" fill="white"/>
<path d="M81 69C85.4183 69 89 65.4183 89 61C89 65.4183 92.5817 69 97 69C92.5817 69 89 72.5817 89 77C89 72.5817 85.4183 69 81 69Z" fill="white"/>
<path d="M101 69C105.418 69 109 65.4183 109 61C109 65.4183 112.582 69 117 69C112.582 69 109 72.5817 109 77C109 72.5817 105.418 69 101 69Z" fill="white"/>
<path d="M121 69C125.418 69 129 65.4183 129 61C129 65.4183 132.582 69 137 69C132.582 69 129 72.5817 129 77C129 72.5817 125.418 69 121 69Z" fill="white"/>
<path d="M141 69C145.418 69 149 65.4183 149 61C149 65.4183 152.582 69 157 69C152.582 69 149 72.5817 149 77C149 72.5817 145.418 69 141 69Z" fill="white"/>
<path d="M161 69C165.418 69 169 65.4183 169 61C169 65.4183 172.582 69 177 69C172.582 69 169 72.5817 169 77C169 72.5817 165.418 69 161 69Z" fill="white"/>
<path d="M181 69C185.418 69 189 65.4183 189 61C189 65.4183 192.582 69 197 69C192.582 69 189 72.5817 189 77C189 72.5817 185.418 69 181 69Z" fill="white"/>
<path d="M201 69C205.418 69 209 65.4183 209 61C209 65.4183 212.582 69 217 69C212.582 69 209 72.5817 209 77C209 72.5817 205.418 69 201 69Z" fill="white"/>
<path d="M221 69C225.418 69 229 65.4183 229 61C229 65.4183 232.582 69 237 69C232.582 69 229 72.5817 229 77C229 72.5817 225.418 69 221 69Z" fill="white"/>
<path d="M241 69C245.418 69 249 65.4183 249 61C249 65.4183 252.582 69 257 69C252.582 69 249 72.5817 249 77C249 72.5817 245.418 69 241 69Z" fill="white"/>
<path d="M261 69C265.418 69 269 65.4183 269 61C269 65.4183 272.582 69 277 69C272.582 69 269 72.5817 269 77C269 72.5817 265.418 69 261 69Z" fill="white"/>
<path d="M281 69C285.418 69 289 65.4183 289 61C289 65.4183 292.582 69 297 69C292.582 69 289 72.5817 289 77C289 72.5817 285.418 69 281 69Z" fill="white"/>
<path d="M301 69C305.418 69 309 65.4183 309 61C309 65.4183 312.582 69 317 69C312.582 69 309 72.5817 309 77C309 72.5817 305.418 69 301 69Z" fill="white"/>
<path d="M321 69C325.418 69 329 65.4183 329 61C329 65.4183 332.582 69 337 69C332.582 69 329 72.5817 329 77C329 72.5817 325.418 69 321 69Z" fill="white"/>
<path d="M341 69C345.418 69 349 65.4183 349 61C349 65.4183 352.582 69 357 69C352.582 69 349 72.5817 349 77C349 72.5817 345.418 69 341 69Z" fill="white"/>
</g>
<g opacity="0.2">
<path d="M41 486C45.4183 486 49 482.418 49 478C49 482.418 52.5817 486 57 486C52.5817 486 49 489.582 49 494C49 489.582 45.4183 486 41 486Z" fill="white"/>
<path d="M61 486C65.4183 486 69 482.418 69 478C69 482.418 72.5817 486 77 486C72.5817 486 69 489.582 69 494C69 489.582 65.4183 486 61 486Z" fill="white"/>
<path d="M81 486C85.4183 486 89 482.418 89 478C89 482.418 92.5817 486 97 486C92.5817 486 89 489.582 89 494C89 489.582 85.4183 486 81 486Z" fill="white"/>
<path d="M101 486C105.418 486 109 482.418 109 478C109 482.418 112.582 486 117 486C112.582 486 109 489.582 109 494C109 489.582 105.418 486 101 486Z" fill="white"/>
<path d="M121 486C125.418 486 129 482.418 129 478C129 482.418 132.582 486 137 486C132.582 486 129 489.582 129 494C129 489.582 125.418 486 121 486Z" fill="white"/>
<path d="M141 486C145.418 486 149 482.418 149 478C149 482.418 152.582 486 157 486C152.582 486 149 489.582 149 494C149 489.582 145.418 486 141 486Z" fill="white"/>
<path d="M161 486C165.418 486 169 482.418 169 478C169 482.418 172.582 486 177 486C172.582 486 169 489.582 169 494C169 489.582 165.418 486 161 486Z" fill="white"/>
<path d="M181 486C185.418 486 189 482.418 189 478C189 482.418 192.582 486 197 486C192.582 486 189 489.582 189 494C189 489.582 185.418 486 181 486Z" fill="white"/>
<path d="M201 486C205.418 486 209 482.418 209 478C209 482.418 212.582 486 217 486C212.582 486 209 489.582 209 494C209 489.582 205.418 486 201 486Z" fill="white"/>
<path d="M221 486C225.418 486 229 482.418 229 478C229 482.418 232.582 486 237 486C232.582 486 229 489.582 229 494C229 489.582 225.418 486 221 486Z" fill="white"/>
<path d="M241 486C245.418 486 249 482.418 249 478C249 482.418 252.582 486 257 486C252.582 486 249 489.582 249 494C249 489.582 245.418 486 241 486Z" fill="white"/>
<path d="M261 486C265.418 486 269 482.418 269 478C269 482.418 272.582 486 277 486C272.582 486 269 489.582 269 494C269 489.582 265.418 486 261 486Z" fill="white"/>
<path d="M281 486C285.418 486 289 482.418 289 478C289 482.418 292.582 486 297 486C292.582 486 289 489.582 289 494C289 489.582 285.418 486 281 486Z" fill="white"/>
<path d="M301 486C305.418 486 309 482.418 309 478C309 482.418 312.582 486 317 486C312.582 486 309 489.582 309 494C309 489.582 305.418 486 301 486Z" fill="white"/>
<path d="M321 486C325.418 486 329 482.418 329 478C329 482.418 332.582 486 337 486C332.582 486 329 489.582 329 494C329 489.582 325.418 486 321 486Z" fill="white"/>
<path d="M341 486C345.418 486 349 482.418 349 478C349 482.418 352.582 486 357 486C352.582 486 349 489.582 349 494C349 489.582 345.418 486 341 486Z" fill="white"/>
<path d="M361 486C365.418 486 369 482.418 369 478C369 482.418 372.582 486 377 486C372.582 486 369 489.582 369 494C369 489.582 365.418 486 361 486Z" fill="white"/>
<path d="M381 486C385.418 486 389 482.418 389 478C389 482.418 392.582 486 397 486C392.582 486 389 489.582 389 494C389 489.582 385.418 486 381 486Z" fill="white"/>
<path d="M401 486C405.418 486 409 482.418 409 478C409 482.418 412.582 486 417 486C412.582 486 409 489.582 409 494C409 489.582 405.418 486 401 486Z" fill="white"/>
<path d="M41 506C45.4183 506 49 502.418 49 498C49 502.418 52.5817 506 57 506C52.5817 506 49 509.582 49 514C49 509.582 45.4183 506 41 506Z" fill="white"/>
<path d="M61 506C65.4183 506 69 502.418 69 498C69 502.418 72.5817 506 77 506C72.5817 506 69 509.582 69 514C69 509.582 65.4183 506 61 506Z" fill="white"/>
<path d="M81 506C85.4183 506 89 502.418 89 498C89 502.418 92.5817 506 97 506C92.5817 506 89 509.582 89 514C89 509.582 85.4183 506 81 506Z" fill="white"/>
<path d="M101 506C105.418 506 109 502.418 109 498C109 502.418 112.582 506 117 506C112.582 506 109 509.582 109 514C109 509.582 105.418 506 101 506Z" fill="white"/>
<path d="M121 506C125.418 506 129 502.418 129 498C129 502.418 132.582 506 137 506C132.582 506 129 509.582 129 514C129 509.582 125.418 506 121 506Z" fill="white"/>
<path d="M141 506C145.418 506 149 502.418 149 498C149 502.418 152.582 506 157 506C152.582 506 149 509.582 149 514C149 509.582 145.418 506 141 506Z" fill="white"/>
<path d="M161 506C165.418 506 169 502.418 169 498C169 502.418 172.582 506 177 506C172.582 506 169 509.582 169 514C169 509.582 165.418 506 161 506Z" fill="white"/>
<path d="M181 506C185.418 506 189 502.418 189 498C189 502.418 192.582 506 197 506C192.582 506 189 509.582 189 514C189 509.582 185.418 506 181 506Z" fill="white"/>
<path d="M201 506C205.418 506 209 502.418 209 498C209 502.418 212.582 506 217 506C212.582 506 209 509.582 209 514C209 509.582 205.418 506 201 506Z" fill="white"/>
<path d="M221 506C225.418 506 229 502.418 229 498C229 502.418 232.582 506 237 506C232.582 506 229 509.582 229 514C229 509.582 225.418 506 221 506Z" fill="white"/>
<path d="M241 506C245.418 506 249 502.418 249 498C249 502.418 252.582 506 257 506C252.582 506 249 509.582 249 514C249 509.582 245.418 506 241 506Z" fill="white"/>
<path d="M261 506C265.418 506 269 502.418 269 498C269 502.418 272.582 506 277 506C272.582 506 269 509.582 269 514C269 509.582 265.418 506 261 506Z" fill="white"/>
<path d="M281 506C285.418 506 289 502.418 289 498C289 502.418 292.582 506 297 506C292.582 506 289 509.582 289 514C289 509.582 285.418 506 281 506Z" fill="white"/>
<path d="M301 506C305.418 506 309 502.418 309 498C309 502.418 312.582 506 317 506C312.582 506 309 509.582 309 514C309 509.582 305.418 506 301 506Z" fill="white"/>
<path d="M321 506C325.418 506 329 502.418 329 498C329 502.418 332.582 506 337 506C332.582 506 329 509.582 329 514C329 509.582 325.418 506 321 506Z" fill="white"/>
<path d="M341 506C345.418 506 349 502.418 349 498C349 502.418 352.582 506 357 506C352.582 506 349 509.582 349 514C349 509.582 345.418 506 341 506Z" fill="white"/>
<path d="M361 506C365.418 506 369 502.418 369 498C369 502.418 372.582 506 377 506C372.582 506 369 509.582 369 514C369 509.582 365.418 506 361 506Z" fill="white"/>
<path d="M381 506C385.418 506 389 502.418 389 498C389 502.418 392.582 506 397 506C392.582 506 389 509.582 389 514C389 509.582 385.418 506 381 506Z" fill="white"/>
<path d="M401 506C405.418 506 409 502.418 409 498C409 502.418 412.582 506 417 506C412.582 506 409 509.582 409 514C409 509.582 405.418 506 401 506Z" fill="white"/>
<path d="M421 506C425.418 506 429 502.418 429 498C429 502.418 432.582 506 437 506C432.582 506 429 509.582 429 514C429 509.582 425.418 506 421 506Z" fill="white"/>
<path d="M441 506C445.418 506 449 502.418 449 498C449 502.418 452.582 506 457 506C452.582 506 449 509.582 449 514C449 509.582 445.418 506 441 506Z" fill="white"/>
<path d="M41 526C45.4183 526 49 522.418 49 518C49 522.418 52.5817 526 57 526C52.5817 526 49 529.582 49 534C49 529.582 45.4183 526 41 526Z" fill="white"/>
<path d="M61 526C65.4183 526 69 522.418 69 518C69 522.418 72.5817 526 77 526C72.5817 526 69 529.582 69 534C69 529.582 65.4183 526 61 526Z" fill="white"/>
<path d="M81 526C85.4183 526 89 522.418 89 518C89 522.418 92.5817 526 97 526C92.5817 526 89 529.582 89 534C89 529.582 85.4183 526 81 526Z" fill="white"/>
<path d="M101 526C105.418 526 109 522.418 109 518C109 522.418 112.582 526 117 526C112.582 526 109 529.582 109 534C109 529.582 105.418 526 101 526Z" fill="white"/>
<path d="M121 526C125.418 526 129 522.418 129 518C129 522.418 132.582 526 137 526C132.582 526 129 529.582 129 534C129 529.582 125.418 526 121 526Z" fill="white"/>
<path d="M141 526C145.418 526 149 522.418 149 518C149 522.418 152.582 526 157 526C152.582 526 149 529.582 149 534C149 529.582 145.418 526 141 526Z" fill="white"/>
<path d="M161 526C165.418 526 169 522.418 169 518C169 522.418 172.582 526 177 526C172.582 526 169 529.582 169 534C169 529.582 165.418 526 161 526Z" fill="white"/>
<path d="M181 526C185.418 526 189 522.418 189 518C189 522.418 192.582 526 197 526C192.582 526 189 529.582 189 534C189 529.582 185.418 526 181 526Z" fill="white"/>
<path d="M201 526C205.418 526 209 522.418 209 518C209 522.418 212.582 526 217 526C212.582 526 209 529.582 209 534C209 529.582 205.418 526 201 526Z" fill="white"/>
<path d="M221 526C225.418 526 229 522.418 229 518C229 522.418 232.582 526 237 526C232.582 526 229 529.582 229 534C229 529.582 225.418 526 221 526Z" fill="white"/>
<path d="M241 526C245.418 526 249 522.418 249 518C249 522.418 252.582 526 257 526C252.582 526 249 529.582 249 534C249 529.582 245.418 526 241 526Z" fill="white"/>
<path d="M261 526C265.418 526 269 522.418 269 518C269 522.418 272.582 526 277 526C272.582 526 269 529.582 269 534C269 529.582 265.418 526 261 526Z" fill="white"/>
<path d="M281 526C285.418 526 289 522.418 289 518C289 522.418 292.582 526 297 526C292.582 526 289 529.582 289 534C289 529.582 285.418 526 281 526Z" fill="white"/>
<path d="M301 526C305.418 526 309 522.418 309 518C309 522.418 312.582 526 317 526C312.582 526 309 529.582 309 534C309 529.582 305.418 526 301 526Z" fill="white"/>
<path d="M321 526C325.418 526 329 522.418 329 518C329 522.418 332.582 526 337 526C332.582 526 329 529.582 329 534C329 529.582 325.418 526 321 526Z" fill="white"/>
<path d="M341 526C345.418 526 349 522.418 349 518C349 522.418 352.582 526 357 526C352.582 526 349 529.582 349 534C349 529.582 345.418 526 341 526Z" fill="white"/>
<path d="M361 526C365.418 526 369 522.418 369 518C369 522.418 372.582 526 377 526C372.582 526 369 529.582 369 534C369 529.582 365.418 526 361 526Z" fill="white"/>
<path d="M381 526C385.418 526 389 522.418 389 518C389 522.418 392.582 526 397 526C392.582 526 389 529.582 389 534C389 529.582 385.418 526 381 526Z" fill="white"/>
<path d="M401 526C405.418 526 409 522.418 409 518C409 522.418 412.582 526 417 526C412.582 526 409 529.582 409 534C409 529.582 405.418 526 401 526Z" fill="white"/>
<path d="M421 526C425.418 526 429 522.418 429 518C429 522.418 432.582 526 437 526C432.582 526 429 529.582 429 534C429 529.582 425.418 526 421 526Z" fill="white"/>
<path d="M441 526C445.418 526 449 522.418 449 518C449 522.418 452.582 526 457 526C452.582 526 449 529.582 449 534C449 529.582 445.418 526 441 526Z" fill="white"/>
</g>
<g opacity="0.2">
<path d="M1845 486C1849.42 486 1853 482.418 1853 478C1853 482.418 1856.58 486 1861 486C1856.58 486 1853 489.582 1853 494C1853 489.582 1849.42 486 1845 486Z" fill="white"/>
<path d="M1865 486C1869.42 486 1873 482.418 1873 478C1873 482.418 1876.58 486 1881 486C1876.58 486 1873 489.582 1873 494C1873 489.582 1869.42 486 1865 486Z" fill="white"/>
<path d="M1805 506C1809.42 506 1813 502.418 1813 498C1813 502.418 1816.58 506 1821 506C1816.58 506 1813 509.582 1813 514C1813 509.582 1809.42 506 1805 506Z" fill="white"/>
<path d="M1825 506C1829.42 506 1833 502.418 1833 498C1833 502.418 1836.58 506 1841 506C1836.58 506 1833 509.582 1833 514C1833 509.582 1829.42 506 1825 506Z" fill="white"/>
<path d="M1845 506C1849.42 506 1853 502.418 1853 498C1853 502.418 1856.58 506 1861 506C1856.58 506 1853 509.582 1853 514C1853 509.582 1849.42 506 1845 506Z" fill="white"/>
<path d="M1865 506C1869.42 506 1873 502.418 1873 498C1873 502.418 1876.58 506 1881 506C1876.58 506 1873 509.582 1873 514C1873 509.582 1869.42 506 1865 506Z" fill="white"/>
<path d="M1805 526C1809.42 526 1813 522.418 1813 518C1813 522.418 1816.58 526 1821 526C1816.58 526 1813 529.582 1813 534C1813 529.582 1809.42 526 1805 526Z" fill="white"/>
<path d="M1825 526C1829.42 526 1833 522.418 1833 518C1833 522.418 1836.58 526 1841 526C1836.58 526 1833 529.582 1833 534C1833 529.582 1829.42 526 1825 526Z" fill="white"/>
<path d="M1845 526C1849.42 526 1853 522.418 1853 518C1853 522.418 1856.58 526 1861 526C1856.58 526 1853 529.582 1853 534C1853 529.582 1849.42 526 1845 526Z" fill="white"/>
<path d="M1865 526C1869.42 526 1873 522.418 1873 518C1873 522.418 1876.58 526 1881 526C1876.58 526 1873 529.582 1873 534C1873 529.582 1869.42 526 1865 526Z" fill="white"/>
</g>
<circle opacity="0.03" cx="1681" cy="81" r="80" fill="white"/>
<circle opacity="0.06" cx="1681" cy="201" r="80" fill="white"/>
<circle opacity="0.09" cx="1681" cy="321" r="80" fill="white"/>
</svg>
