<svg width="640" height="224" viewBox="0 0 640 224" fill="none" xmlns="http://www.w3.org/2000/svg">
<mask id="path-1-inside-1_369_2481" fill="white">
<path fill-rule="evenodd" clip-rule="evenodd" d="M80 16H640V160L576 224H16V16L16 80L80 16Z"/>
</mask>
<path d="M640 16H644V12H640V16ZM80 16V12H78.3431L77.1716 13.1716L80 16ZM640 160L642.828 162.828L644 161.657V160H640ZM576 224V228H577.657L578.828 226.828L576 224ZM16 224H12V228H16V224ZM16 80L12 80L12 89.6569L18.8284 82.8284L16 80ZM640 12H80V20H640V12ZM644 160V16H636V160H644ZM578.828 226.828L642.828 162.828L637.172 157.172L573.172 221.172L578.828 226.828ZM16 228H576V220H16V228ZM12 16V224H20V16H12ZM20 80L20 16L12 16L12 80L20 80ZM77.1716 13.1716L13.1716 77.1716L18.8284 82.8284L82.8284 18.8284L77.1716 13.1716Z" fill="white" mask="url(#path-1-inside-1_369_2481)"/>
<path fill-rule="evenodd" clip-rule="evenodd" d="M64 0H624V144L560 208H0V0L5.59506e-06 64L64 0Z" fill="white"/>
</svg>
