<svg width="25" height="24" viewBox="0 0 25 24" fill="none" xmlns="http://www.w3.org/2000/svg">
<g clip-path="url(#clip0_280_1677)">
<path d="M2.0002 1.63329C0.114199 3.59229 0.500199 5.67329 0.500199 11.9953C0.500199 17.2453 -0.415801 22.5083 4.3782 23.7473C5.8752 24.1323 19.1392 24.1323 20.6342 23.7453C22.6302 23.2303 24.2542 21.6113 24.4762 18.7883C24.5072 18.3943 24.5072 5.60329 24.4752 5.20129C24.2392 2.19429 22.3882 0.461291 19.9492 0.110291C19.3902 0.0292905 19.2782 0.00529053 16.4102 0.000290535C6.2372 0.00529053 4.0072 -0.44771 2.0002 1.63329Z" fill="url(#paint0_linear_280_1677)"/>
<path d="M12.4978 3.13941C8.86681 3.13941 5.41881 2.81641 4.10181 6.19641C3.55781 7.59241 3.63681 9.40541 3.63681 12.0014C3.63681 14.2794 3.56381 16.4204 4.10181 17.8054C5.41581 21.1874 8.89181 20.8634 12.4958 20.8634C15.9728 20.8634 19.5578 21.2254 20.8908 17.8054C21.4358 16.3954 21.3558 14.6094 21.3558 12.0014C21.3558 8.53941 21.5468 6.30441 19.8678 4.62641C18.1678 2.92641 15.8688 3.13941 12.4938 3.13941H12.4978ZM11.7038 4.73641C19.2778 4.72441 20.2418 3.88241 19.7098 15.5794C19.5208 19.7164 16.3708 19.2624 12.4988 19.2624C5.43881 19.2624 5.23581 19.0604 5.23581 11.9974C5.23581 4.85241 5.79581 4.74041 11.7038 4.73441V4.73641ZM17.2278 6.20741C16.6408 6.20741 16.1648 6.68341 16.1648 7.27041C16.1648 7.85741 16.6408 8.33341 17.2278 8.33341C17.8148 8.33341 18.2908 7.85741 18.2908 7.27041C18.2908 6.68341 17.8148 6.20741 17.2278 6.20741ZM12.4978 7.45041C9.98481 7.45041 7.94781 9.48841 7.94781 12.0014C7.94781 14.5144 9.98481 16.5514 12.4978 16.5514C15.0108 16.5514 17.0468 14.5144 17.0468 12.0014C17.0468 9.48841 15.0108 7.45041 12.4978 7.45041ZM12.4978 9.04741C16.4028 9.04741 16.4078 14.9554 12.4978 14.9554C8.59381 14.9554 8.58781 9.04741 12.4978 9.04741Z" fill="white"/>
</g>
<defs>
<linearGradient id="paint0_linear_280_1677" x1="2.04622" y1="22.4674" x2="24.3517" y2="3.16227" gradientUnits="userSpaceOnUse">
<stop stop-color="#FFDD55"/>
<stop offset="0.5" stop-color="#FF543E"/>
<stop offset="1" stop-color="#C837AB"/>
</linearGradient>
<clipPath id="clip0_280_1677">
<rect width="24" height="24" fill="white" transform="translate(0.5)"/>
</clipPath>
</defs>
</svg>
