<svg width="54" height="80" viewBox="0 0 54 80" fill="none" xmlns="http://www.w3.org/2000/svg">
<path d="M53.0966 64.7413L33.0773 18.09H20.7435L0.367521 65.5734H0.421589C0.162159 66.265 0 66.9675 0 67.6915C0 74.4887 12.0635 80 26.9482 80C41.833 80 53.8965 74.4887 53.8965 67.6915C53.9073 66.6757 53.6046 65.6923 53.0966 64.7413Z" fill="#FDFEFF"/>
<path d="M40.1029 39.0114L13.6087 39.3788L2.21541 65.8654C2.19379 65.9843 2.16137 66.1031 2.11813 66.2112C1.91275 66.7515 1.81543 67.2378 1.81543 67.6809C1.81543 72.641 12.1386 78.1739 26.9477 78.1739C41.7568 78.1739 52.0799 72.641 52.0799 67.6809C52.0799 67.0217 51.8853 66.3301 51.4205 65.4439L40.1029 39.0114Z" fill="#59BFC7"/>
<path d="M33.1416 2.9502H20.7754V21.494H33.1416V2.9502Z" fill="#FDFEFF"/>
<path d="M34.9256 2.95029L33.1636 3.01513C31.6935 2.2911 29.4776 1.81561 26.959 1.81561C24.2458 1.81561 21.8569 2.35593 20.4192 3.17722H18.9707V4.99271C18.9707 6.74335 22.5487 8.1698 26.959 8.1698C31.3693 8.1698 34.9472 6.74335 34.9472 4.99271L34.9256 2.95029Z" fill="#FDFEFF"/>
<path d="M26.959 6.35417C31.3707 6.35417 34.9472 4.93174 34.9472 3.17708C34.9472 1.42242 31.3707 0 26.959 0C22.5472 0 18.9707 1.42242 18.9707 3.17708C18.9707 4.93174 22.5472 6.35417 26.959 6.35417Z" fill="#FDFEFF"/>
<path d="M26.959 5.28441C30.5051 5.28441 33.3798 4.23936 33.3798 2.95022C33.3798 1.66108 30.5051 0.616028 26.959 0.616028C23.4128 0.616028 20.5381 1.66108 20.5381 2.95022C20.5381 4.23936 23.4128 5.28441 26.959 5.28441Z" fill="#D9E2FA"/>
<path d="M26.9598 44.4793C34.2968 44.4793 40.2447 42.1956 40.2447 39.3786C40.2447 36.5616 34.2968 34.278 26.9598 34.278C19.6227 34.278 13.6748 36.5616 13.6748 39.3786C13.6748 42.1956 19.6227 44.4793 26.9598 44.4793Z" fill="#A7D9DD"/>
</svg>
