<svg width="25" height="24" viewBox="0 0 25 24" fill="none" xmlns="http://www.w3.org/2000/svg">
<g clip-path="url(#clip0_280_1680)">
<path d="M21.2273 0H3.77273C1.96525 0 0.5 1.46525 0.5 3.27273V20.7273C0.5 22.5347 1.96525 24 3.77273 24H21.2273C23.0347 24 24.5 22.5347 24.5 20.7273V3.27273C24.5 1.46525 23.0347 0 21.2273 0Z" fill="#39CD00"/>
<path d="M20 11.1819C19.9893 11.3343 19.9698 11.4859 19.9414 11.636C19.8465 12.2107 19.6522 12.7644 19.3673 13.2724C19.2309 13.5151 18.575 14.4369 18.3745 14.6796C17.2659 16.0146 15.4086 17.5555 12.305 19.0542C12.2395 19.0858 12.1668 19.0994 12.0943 19.0936C12.0218 19.0878 11.9522 19.0627 11.8926 19.0211C11.833 18.9794 11.7856 18.9226 11.7553 18.8565C11.7249 18.7904 11.7128 18.7174 11.72 18.6451L11.8768 17.2365C11.8887 17.1287 11.8573 17.0206 11.7895 16.936C11.7218 16.8514 11.6232 16.7971 11.5155 16.7851C10.483 16.6818 9.47718 16.395 8.54545 15.9383C6.41818 14.8869 5 13.0092 5 10.8696C5 7.57509 8.35727 4.90918 12.5 4.90918C14.5809 4.90918 16.4627 5.591 17.8182 6.67236C19.0877 7.68827 19.9005 9.06691 19.9877 10.5969C20.0023 10.7915 20.0064 10.9868 20 11.1819Z" fill="white"/>
<path d="M10.4328 12.1901C10.4691 12.2255 10.4978 12.268 10.5172 12.3149C10.5367 12.3617 10.5465 12.4121 10.546 12.4628C10.5461 12.5132 10.5364 12.5632 10.5172 12.6098C10.498 12.6565 10.4698 12.6989 10.4342 12.7346C10.3986 12.7704 10.3563 12.7987 10.3097 12.818C10.2632 12.8374 10.2132 12.8473 10.1628 12.8473H8.62869C8.52682 12.847 8.42922 12.8063 8.35718 12.7343C8.28514 12.6623 8.24451 12.5647 8.24415 12.4628V9.56507C8.24381 9.51435 8.25365 9.46408 8.27309 9.41723C8.29254 9.37038 8.32118 9.32791 8.35733 9.29234C8.411 9.2385 8.47948 9.20184 8.55405 9.18703C8.62861 9.17222 8.7059 9.17992 8.77608 9.20916C8.84625 9.2384 8.90615 9.28786 8.94814 9.35123C8.99012 9.41461 9.01231 9.48904 9.01188 9.56507V12.0782H10.1628C10.213 12.0779 10.2627 12.0876 10.3091 12.1068C10.3555 12.126 10.3976 12.1543 10.4328 12.1901Z" fill="#00C200"/>
<path d="M11.682 9.48165V12.5457C11.6816 12.6252 11.6499 12.7013 11.5937 12.7575C11.5375 12.8137 11.4614 12.8454 11.382 12.8457H11.2102C11.1306 12.8457 11.0543 12.8141 10.998 12.7579C10.9418 12.7016 10.9102 12.6253 10.9102 12.5457V9.48165C10.9102 9.44226 10.9179 9.40325 10.933 9.36685C10.9481 9.33045 10.9702 9.29738 10.998 9.26952C11.0259 9.24166 11.059 9.21957 11.0954 9.20449C11.1317 9.18941 11.1708 9.18165 11.2102 9.18165H11.3779C11.4176 9.18129 11.4569 9.18878 11.4937 9.20368C11.5305 9.21858 11.564 9.24059 11.5923 9.26847C11.6205 9.29635 11.643 9.32953 11.6584 9.36611C11.6738 9.4027 11.6818 9.44196 11.682 9.48165Z" fill="#00C200"/>
<path d="M15.2438 9.56487V12.4462C15.2439 12.5499 15.2036 12.6495 15.1316 12.724C15.0596 12.7986 14.9615 12.8422 14.8579 12.8458C14.7608 12.8442 14.6679 12.8063 14.5974 12.7394C14.5838 12.7285 14.0683 12.0576 13.6306 11.4931C13.3033 11.0717 13.0197 10.7035 13.0197 10.7035V12.4612C13.02 12.5357 12.9985 12.6087 12.9579 12.6712C12.9174 12.7337 12.8595 12.783 12.7913 12.8131C12.7232 12.8432 12.6477 12.8528 12.5742 12.8406C12.5007 12.8285 12.4323 12.7952 12.3774 12.7449C12.3378 12.709 12.3062 12.6652 12.2846 12.6164C12.263 12.5675 12.2519 12.5147 12.252 12.4612V9.58124C12.2507 9.47999 12.2883 9.38212 12.3571 9.30778C12.4258 9.23345 12.5205 9.18832 12.6215 9.18169C12.6787 9.18076 12.7354 9.1925 12.7875 9.21608C12.8396 9.23966 12.8858 9.27448 12.9229 9.31806C12.9393 9.33715 13.7315 10.3681 14.1774 10.9544C14.3547 11.1835 14.4774 11.3444 14.4774 11.3444V9.57169C14.4782 9.47029 14.5188 9.37324 14.5905 9.30153C14.6622 9.22982 14.7592 9.18922 14.8606 9.18851C14.9611 9.18849 15.0575 9.22793 15.1292 9.29832C15.2009 9.36871 15.242 9.46443 15.2438 9.56487Z" fill="#00C200"/>
<path d="M16.5912 11.3969V12.0787H17.7407C17.793 12.0756 17.8455 12.0832 17.8947 12.1011C17.944 12.1189 17.9891 12.1467 18.0273 12.1827C18.0654 12.2186 18.0959 12.262 18.1166 12.3101C18.1374 12.3582 18.1481 12.4101 18.1481 12.4625C18.1481 12.515 18.1374 12.5668 18.1166 12.615C18.0959 12.6631 18.0654 12.7065 18.0273 12.7424C17.9891 12.7784 17.944 12.8062 17.8947 12.824C17.8455 12.8419 17.793 12.8495 17.7407 12.8464H16.2025C16.1008 12.8461 16.0033 12.8054 15.9315 12.7333C15.8597 12.6612 15.8193 12.5636 15.8193 12.4619V9.5655C15.8197 9.46399 15.8602 9.36673 15.932 9.29495C16.0037 9.22317 16.101 9.18268 16.2025 9.18232H17.7366C17.7889 9.1792 17.8414 9.18682 17.8906 9.2047C17.9399 9.22258 17.985 9.25034 18.0232 9.2863C18.0614 9.32225 18.0918 9.36562 18.1125 9.41375C18.1333 9.46189 18.144 9.51376 18.144 9.56619C18.144 9.61861 18.1333 9.67049 18.1125 9.71862C18.0918 9.76675 18.0614 9.81012 18.0232 9.84608C17.985 9.88203 17.9399 9.9098 17.8906 9.92768C17.8414 9.94556 17.7889 9.95317 17.7366 9.95005H16.5912V10.6319H17.7407C17.8423 10.6319 17.9398 10.6722 18.0117 10.7441C18.0835 10.816 18.1239 10.9134 18.1239 11.015C18.1239 11.1167 18.0835 11.2141 18.0117 11.286C17.9398 11.3579 17.8423 11.3982 17.7407 11.3982L16.5912 11.3969Z" fill="#00C200"/>
</g>
<defs>
<clipPath id="clip0_280_1680">
<rect width="24" height="24" fill="white" transform="translate(0.5)"/>
</clipPath>
</defs>
</svg>
