<svg width="100" height="100" viewBox="0 0 100 100" fill="none" xmlns="http://www.w3.org/2000/svg">
<path d="M69.2393 53.4196C65.1299 57.5298 59.2299 56.1931 53.1361 53.8884C52.6064 52.4743 52.0205 51.0493 51.4346 49.6353C51.3299 49.3868 51.2307 49.1321 51.1221 48.8837C56.4588 51.0821 61.4916 53.0321 64.8002 51.7454C65.4287 51.5043 65.9995 51.1339 66.4759 50.6584C66.9523 50.1828 67.3236 49.6125 67.5658 48.9845C68.8533 45.6759 66.8971 40.6376 64.6986 35.3009C64.6049 35.0525 64.5002 34.804 64.3947 34.5556C63.815 33.1353 63.2291 31.7103 62.6932 30.3017C60.39 24.197 59.0525 18.3087 63.1619 14.1985C63.5287 13.8349 64.0246 13.6313 64.5411 13.6323C65.0576 13.6334 65.5527 13.839 65.918 14.2042C66.2833 14.5694 66.489 15.0644 66.4902 15.5809C66.4914 16.0974 66.288 16.5934 65.9244 16.9603C62.8252 20.0595 65.09 25.9595 67.6979 32.3126C67.8025 32.561 67.9018 32.8149 68.0104 33.0634C68.59 34.4696 69.176 35.8978 69.7119 37.3064C72.0127 43.3985 73.3588 49.304 69.2393 53.4196Z" fill="#009CE2"/>
<path d="M36.0934 86.5624C35.9123 86.7451 35.6969 86.8901 35.4596 86.9893C35.2223 87.0885 34.9677 87.1398 34.7105 87.1403C34.4533 87.1409 34.1985 87.0906 33.9608 86.9924C33.7231 86.8942 33.5071 86.75 33.3252 86.5681C33.1434 86.3862 32.9993 86.1702 32.9011 85.9324C32.803 85.6947 32.7528 85.4399 32.7534 85.1827C32.754 84.9254 32.8054 84.6709 32.9046 84.4336C33.0039 84.1963 33.149 83.981 33.3317 83.7999C36.4301 80.7007 34.1598 74.7952 31.5583 68.4483C31.4528 68.1999 31.3536 67.9452 31.2458 67.6968C30.6598 66.2827 30.0739 64.8577 29.5442 63.4429C27.2348 57.3444 25.9036 51.4499 30.0129 47.3398C34.1223 43.2296 40.0231 44.5663 46.1161 46.871C46.652 48.2772 47.2372 49.7054 47.8176 51.114C47.9223 51.3733 48.0333 51.6272 48.1301 51.8819C42.7879 49.6772 37.7559 47.7272 34.4465 49.0147C33.8186 49.2564 33.2484 49.6271 32.7725 50.1028C32.2967 50.5785 31.9259 51.1486 31.684 51.7765C30.3973 55.0858 32.3419 60.1132 34.5458 65.4546C34.6512 65.703 34.7504 65.9577 34.8583 66.2062C35.4387 67.6257 36.0239 69.0507 36.5598 70.4601C38.8676 76.5554 40.2044 82.4554 36.0934 86.5624Z" fill="#009CE2"/>
<path d="M53.1355 53.8893C52.6059 52.4753 52.0199 51.0503 51.434 49.6362C51.3293 49.3878 51.2301 49.1331 51.1215 48.8846C48.923 43.537 46.9809 38.5104 48.2605 35.2065L64.7996 51.7463C65.4281 51.5051 65.9991 51.1347 66.4755 50.6589C66.9519 50.1832 67.3231 49.6128 67.5652 48.9846L51.0254 32.4448C54.3348 31.1573 59.3613 33.1018 64.6973 35.3003C64.6035 35.0518 64.4988 34.8034 64.3934 34.5549C63.8137 33.1346 63.2277 31.7096 62.6918 30.301C56.5934 27.9917 50.6988 26.6604 46.5887 30.7698C42.4785 34.8792 43.816 40.7815 46.1199 46.8753C46.6559 48.2815 47.241 49.7096 47.8215 51.1182C47.9262 51.3776 48.0371 51.6315 48.134 51.8862C50.3324 57.2221 52.2746 62.2495 50.9902 65.5581L34.452 49.0174C33.824 49.2591 33.2538 49.6298 32.778 50.1055C32.3021 50.5812 31.9313 51.1513 31.6895 51.7792L48.2301 68.319C44.927 69.6003 39.8941 67.6503 34.552 65.4573C34.6574 65.7057 34.7566 65.9604 34.8645 66.2089C35.4449 67.6284 36.0301 69.0534 36.566 70.4628C42.6598 72.7659 48.559 74.1026 52.6691 69.994C56.7793 65.8854 55.4395 59.9831 53.1355 53.8893Z" fill="#FF8161"/>
<path d="M29.5476 63.4464C23.4484 61.1379 17.5547 59.8066 13.4445 63.9152C13.2618 64.0962 13.1167 64.3116 13.0175 64.5489C12.9182 64.7862 12.8668 65.0407 12.8662 65.2979C12.8656 65.5551 12.9158 65.8099 13.014 66.0477C13.1121 66.2854 13.2562 66.5015 13.4381 66.6834C13.6199 66.8653 13.8359 67.0095 14.0736 67.1077C14.3113 67.2059 14.5661 67.2561 14.8233 67.2556C15.0805 67.2551 15.3351 67.2038 15.5724 67.1046C15.8097 67.0054 16.0251 66.8603 16.2062 66.6777C19.3055 63.5785 25.2109 65.8379 31.5586 68.4511C31.4531 68.2027 31.3539 67.948 31.2461 67.6996C30.6633 66.2863 30.0773 64.8613 29.5476 63.4464Z" fill="#FF8161"/>
<path d="M69.7102 37.3058C75.7977 39.6151 81.7031 40.9573 85.8133 36.8472C85.9959 36.6661 86.141 36.4507 86.2402 36.2134C86.3393 35.976 86.3907 35.7215 86.3912 35.4643C86.3917 35.2071 86.3414 34.9523 86.2432 34.7146C86.145 34.4768 86.0008 34.2608 85.8189 34.079C85.637 33.8972 85.421 33.753 85.1833 33.6549C84.9455 33.5568 84.6907 33.5065 84.4335 33.5071C84.1763 33.5077 83.9218 33.5591 83.6845 33.6584C83.4472 33.7576 83.2318 33.9028 83.0508 34.0854C79.9516 37.1839 74.0461 34.9136 67.6992 32.312C67.8039 32.5604 67.9031 32.8144 68.0117 33.0628C68.5883 34.4722 69.1742 35.8972 69.7102 37.3058Z" fill="#FF8161"/>
</svg>
