<svg width="100" height="100" viewBox="0 0 100 100" fill="none" xmlns="http://www.w3.org/2000/svg">
<path d="M83.4873 50.6821H49.7505L58.7505 29.2618C58.83 29.0949 58.8748 28.9136 58.8822 28.7289C58.8896 28.5442 58.8594 28.3599 58.7936 28.1871C58.7277 28.0144 58.6275 27.8568 58.499 27.7239C58.3705 27.591 58.2164 27.4855 58.046 27.4139C57.8755 27.3422 57.6923 27.3059 57.5075 27.307C57.3226 27.3082 57.1399 27.3468 56.9704 27.4206C56.8009 27.4944 56.6481 27.6018 56.5213 27.7363C56.3945 27.8708 56.2963 28.0297 56.2326 28.2032L47.3138 49.4228L22.899 19.5087C22.7873 19.3643 22.6478 19.2437 22.4887 19.1541C22.3296 19.0645 22.1542 19.0076 21.9728 18.9869C21.7914 18.9661 21.6077 18.9819 21.4325 19.0334C21.2573 19.0848 21.0942 19.1708 20.9528 19.2863C20.8114 19.4017 20.6945 19.5444 20.6091 19.7057C20.5237 19.8671 20.4715 20.044 20.4556 20.2259C20.4397 20.4077 20.4603 20.591 20.5163 20.7647C20.5724 20.9385 20.6626 21.0993 20.7818 21.2376L45.813 51.9079L19.2193 76.0368C19.0864 76.1574 18.9785 76.303 18.9019 76.4653C18.8252 76.6276 18.7813 76.8034 18.7726 76.9826C18.7639 77.1619 18.7906 77.3411 18.8511 77.5101C18.9117 77.679 19.0049 77.8344 19.1255 77.9673C19.2461 78.1002 19.3917 78.2081 19.554 78.2847C19.7163 78.3614 19.8921 78.4053 20.0714 78.414C20.2506 78.4227 20.4298 78.396 20.5988 78.3354C20.7677 78.2749 20.9231 78.1816 21.056 78.061L47.5451 54.029L64.1076 74.2923C64.3371 74.5732 64.6687 74.7514 65.0296 74.7877C65.3904 74.824 65.7509 74.7155 66.0318 74.486C66.3127 74.2566 66.4909 73.9249 66.5272 73.5641C66.5635 73.2032 66.455 72.8427 66.2255 72.5618L50.5763 53.4165H83.4873C83.8499 53.4165 84.1976 53.2725 84.454 53.0161C84.7104 52.7597 84.8545 52.4119 84.8545 52.0493C84.8545 51.6867 84.7104 51.339 84.454 51.0826C84.1976 50.8262 83.8499 50.6821 83.4873 50.6821Z" fill="#D9E2FA"/>
<path d="M47.6901 63.6967C54.123 63.6967 59.3378 58.4818 59.3378 52.049C59.3378 45.6162 54.123 40.4014 47.6901 40.4014C41.2573 40.4014 36.0425 45.6162 36.0425 52.049C36.0425 58.4818 41.2573 63.6967 47.6901 63.6967Z" fill="#FFDF4B"/>
<path d="M21.8391 27.9501C26.0239 27.9501 29.4164 24.5576 29.4164 20.3728C29.4164 16.1879 26.0239 12.7954 21.8391 12.7954C17.6542 12.7954 14.2617 16.1879 14.2617 20.3728C14.2617 24.5576 17.6542 27.9501 21.8391 27.9501Z" fill="#F7BE29"/>
<path d="M20.1353 87.2056C25.7444 87.2056 30.2915 82.6585 30.2915 77.0493C30.2915 71.4402 25.7444 66.8931 20.1353 66.8931C14.5261 66.8931 9.979 71.4402 9.979 77.0493C9.979 82.6585 14.5261 87.2056 20.1353 87.2056Z" fill="#FFDF4B"/>
<path d="M57.4943 34.4999C60.6803 34.4999 63.2631 31.9171 63.2631 28.7312C63.2631 25.5452 60.6803 22.9624 57.4943 22.9624C54.3083 22.9624 51.7256 25.5452 51.7256 28.7312C51.7256 31.9171 54.3083 34.4999 57.4943 34.4999Z" fill="#FFDF4B"/>
<path d="M87.1476 57.4772C90.1537 55.4779 90.97 51.4201 88.9707 48.414C86.9714 45.4078 82.9136 44.5916 79.9075 46.5909C76.9013 48.5902 76.0851 52.6479 78.0844 55.6541C80.0837 58.6602 84.1414 59.4765 87.1476 57.4772Z" fill="#FFDF4B"/>
<path d="M65.1634 78.5758C68.0072 78.5758 70.3126 76.2704 70.3126 73.4266C70.3126 70.5827 68.0072 68.2773 65.1634 68.2773C62.3195 68.2773 60.0142 70.5827 60.0142 73.4266C60.0142 76.2704 62.3195 78.5758 65.1634 78.5758Z" fill="#F7BE29"/>
</svg>
