<svg width="333" height="36" viewBox="0 0 333 36" fill="none" xmlns="http://www.w3.org/2000/svg">
<path d="M139.77 18H127.232C125.604 18 124.876 18.698 124.876 20.2744V33.7249C124.876 34.7837 125.142 35.9993 127.232 35.9993H139.77C141.376 35.9993 142.126 35.2778 142.126 33.7249V20.2744C142.126 19.3019 141.883 18 139.77 18ZM138.929 34.8935H128.073C127.255 34.8935 127.104 34.5562 127.104 33.8896V20.1019C127.104 19.247 127.46 19.0823 128.073 19.0823H138.929C139.649 19.0823 139.899 19.3411 139.899 20.1019V33.8896C139.899 34.7288 139.558 34.8935 138.929 34.8935Z" fill="#3E3A39"/>
<path d="M131.622 29.2498C132.405 29.2498 133.126 29.0895 133.126 27.9434V25.3064C133.126 24.3767 132.687 24 131.622 24H129.404C128.613 24 127.876 24.1603 127.876 25.3064V27.9434C127.876 28.8731 128.315 29.2498 129.404 29.2498H131.622ZM129.624 27.5426V25.7072C129.624 25.1942 129.702 25.1061 130.211 25.1061H130.815C131.316 25.1061 131.402 25.1862 131.402 25.7072V27.5426C131.402 28.0235 131.348 28.1437 130.815 28.1437H130.211C129.679 28.1437 129.624 28.0235 129.624 27.5426Z" fill="#3E3A39"/>
<path d="M138.718 24.8259C137.991 24.8259 137.839 25.2441 137.718 25.5755L137.703 25.6071C137.241 27.0037 137.158 27.2483 136.78 28.0689C136.295 25.7491 136.219 24.0369 136.189 23.0822H139.195C139.596 23.0822 139.831 22.877 139.831 22.522C139.831 22.1117 139.505 21.9697 139.195 21.9697H138.862C138.968 21.8276 139.043 21.6619 139.043 21.4805C139.043 21.0859 138.801 20.8966 138.392 20.6125C137.923 20.289 137.408 19.9497 137.196 19.9497C136.939 19.9497 136.727 20.1707 136.727 20.4389C136.727 20.5257 136.757 20.6678 136.795 20.6993C136.878 20.8256 136.976 20.9518 137.06 21.0702C137.196 21.2595 137.325 21.441 137.4 21.5673C137.499 21.733 137.582 21.8592 137.65 21.9618H136.166V20.6441C136.166 19.9261 135.773 19.5 135.114 19.5C134.713 19.5 134.206 19.784 134.1 20.2496C134.062 20.4389 134.077 21.5515 134.1 21.9618H128.512C128.21 21.9618 127.876 22.1117 127.876 22.5141C127.876 22.9165 128.202 23.0743 128.512 23.0743H134.145C134.221 24.4235 134.402 27.4297 135.334 30.4675C134.478 31.58 133.274 32.6847 132.116 33.4421C131.95 33.5605 131.806 33.6789 131.806 33.9471C131.806 34.2154 132.01 34.4994 132.336 34.4994C132.737 34.4994 134.524 33.3238 135.909 32.0456C136.59 33.7183 137.438 34.0813 138.044 34.0813H138.059C139.066 34.0655 139.626 33.3475 139.755 32.8662C139.831 32.5821 139.778 32.3533 139.619 32.2507C139.384 32.1008 139.187 32.2586 138.99 32.4243C138.756 32.6137 138.528 32.7951 138.203 32.59C137.961 32.4401 137.559 31.2644 137.416 30.4359C138.892 28.5502 139.876 26.4277 139.876 25.8438C139.876 25.3467 139.437 24.8102 138.718 24.8102V24.8259Z" fill="#3E3A39"/>
<path d="M133.423 30.363C133.559 30.3153 133.876 30.204 133.876 29.7906C133.876 29.4647 133.574 29.25 133.363 29.25C133.325 29.25 133.235 29.258 133.167 29.2659C133.137 29.2659 133.106 29.2659 133.091 29.2659C131.431 29.5124 130.254 29.6475 128.782 29.7111H128.759C128.495 29.735 127.876 29.7827 127.876 30.5856C127.876 31.0229 128.209 31.4999 128.692 31.4999C128.782 31.4999 131.823 30.8321 133.408 30.3551H133.431L133.423 30.363Z" fill="#3E3A39"/>
<path d="M328.511 28.5H319.463C318.17 28.5 317.62 29.0534 317.62 30.3628V33.3869C317.62 34.3534 317.841 35.2497 319.463 35.2497H328.511C329.811 35.2497 330.369 34.6964 330.369 33.3869V30.3628C330.369 29.0612 329.811 28.5 328.511 28.5ZM328.144 32.4283V33.2077C328.144 33.9403 328.029 34.0806 327.409 34.0806H320.579C319.952 34.0806 319.845 33.9559 319.845 33.2077V32.4283H328.144ZM328.144 30.5421V31.2825H319.845V30.5421C319.845 29.8094 319.96 29.6691 320.579 29.6691H327.409C328.036 29.6691 328.144 29.7938 328.144 30.5421Z" fill="#3E3A39"/>
<path d="M329.384 22.5H317.855C316.328 22.5 316.12 23.3314 316.12 24.1391V26.1107C316.12 26.9263 316.328 27.7498 317.855 27.7498H329.384C330.911 27.7498 331.119 26.958 331.119 26.1107V24.1391C331.119 23.3235 330.911 22.5 329.384 22.5ZM321.921 26.277C321.921 26.1741 321.899 26.0791 321.832 25.9682C321.564 25.5169 321.303 24.9309 321.057 24.2341C320.916 23.8619 320.745 23.6561 320.506 23.569H322.584V26.6888H321.713C321.832 26.6017 321.929 26.467 321.929 26.277H321.921ZM319.195 24.5508C319.195 25.1922 320.618 26.3562 321.214 26.6888H318.905C318.317 26.6888 318.19 26.6254 318.19 25.9286V24.3212C318.19 23.6719 318.287 23.569 318.905 23.569H319.918C319.516 23.7036 319.195 24.1074 319.195 24.5508ZM328.192 24.4875C328.192 24.052 327.872 23.7115 327.492 23.569H328.289C328.9 23.569 329.004 23.6719 329.004 24.3212V25.9286C329.004 26.6175 328.877 26.6888 328.289 26.6888H326.129C326.74 26.3483 328.192 25.1447 328.192 24.4875ZM325.95 25.0259C325.921 25.1051 325.831 25.2951 325.734 25.4931C325.489 25.9999 325.407 26.182 325.407 26.2533C325.407 26.4195 325.496 26.5858 325.638 26.6808H324.595V23.561H326.747C326.449 23.7115 326.278 24.1312 325.95 25.018V25.0259Z" fill="#3E3A39"/>
<path d="M332.168 20.7546C330.626 20.3508 327.701 19.3557 325.456 17.2428C324.799 16.601 324.624 16.5 323.654 16.5C322.684 16.5 322.501 16.6514 322.172 16.9327C320.859 18.1081 319.224 19.5648 315.047 20.7402C314.979 20.7546 314.62 20.8556 314.62 21.2234C314.62 21.4974 314.872 21.7065 315.101 21.7065C315.399 21.7065 316.544 21.3892 317.201 21.1945C317.911 20.9854 318.53 20.7907 319.079 20.6104C318.972 20.7258 318.957 20.87 318.957 20.9349C318.957 21.1152 319.034 21.4109 319.56 21.4109H327.495C327.884 21.4109 328.121 21.2306 328.121 20.9349C328.121 20.834 328.068 20.6897 327.945 20.5888C329.961 21.3604 331.748 21.7498 332.115 21.7498C332.329 21.7498 332.619 21.5839 332.619 21.2666C332.619 21.0143 332.466 20.8484 332.153 20.7691L332.168 20.7546ZM327.51 20.4301H319.591C321.668 19.6802 322.577 19.0816 323.394 18.5336L323.455 18.4903C323.57 18.411 323.608 18.3821 323.684 18.3821C323.776 18.3821 323.814 18.4038 323.974 18.5336C325.082 19.3196 326.388 19.9542 327.64 20.4518C327.594 20.4518 327.564 20.4301 327.518 20.4301H327.51Z" fill="#3E3A39"/>
<path d="M173.059 34.57V26.8859C173.485 27.4622 174.779 29.1527 175.315 29.1527C175.615 29.1527 175.875 28.9068 175.875 28.6148C175.875 28.4227 175.717 28.246 175.67 28.2076C173.935 26.1405 173.233 23.8968 173.059 23.2359V23.1591H175.149C175.568 23.1591 175.812 22.9593 175.812 22.6212C175.812 22.2831 175.568 22.0833 175.149 22.0833H173.059V19.3478C175.023 19.1557 175.56 18.9943 175.56 18.295C175.56 17.8033 175.102 17.25 174.479 17.25C174.282 17.25 173.193 17.6342 173.186 17.6342C171.545 18.1798 170.125 18.3411 168.327 18.5409L167.972 18.5794C167.79 18.5947 167.254 18.6331 167.254 19.1403C167.254 19.5399 167.601 19.6782 167.893 19.6782C168.185 19.6782 169.668 19.6167 170.732 19.5399V22.0833H167.869C167.554 22.0833 167.207 22.2216 167.207 22.6212C167.207 22.9593 167.451 23.1591 167.869 23.1591H170.591C169.873 26.7937 168.114 29.6522 167.12 30.8125C166.962 30.9816 166.875 31.1045 166.875 31.2812C166.875 31.5809 167.136 31.8191 167.451 31.8191C167.822 31.8191 169.392 30.3438 170.732 28.2153V34.57C170.732 34.9619 170.732 35.9993 171.892 35.9993C173.051 35.9993 173.051 34.9619 173.051 34.57H173.059Z" fill="#3E3A39"/>
<path d="M177.978 26.9391C178.174 27.3607 178.436 27.7498 179.066 27.7498C179.803 27.7498 180.375 27.0445 180.375 26.4364C180.375 25.6742 179.115 24.8148 178.436 24.3446C178.395 24.3202 178.338 24.2797 178.273 24.2392C177.479 23.7203 176.702 23.25 176.448 23.25C176.17 23.25 175.875 23.4689 175.875 23.8175C175.875 23.9959 175.974 24.1419 176.072 24.2554C176.915 25.1716 177.504 25.9013 177.986 26.9391H177.978Z" fill="#3E3A39"/>
<path d="M178.044 21.2969C178.732 22.3662 178.84 22.4999 179.289 22.4999C179.875 22.4999 180.375 21.9727 180.375 21.3563C180.375 20.9776 180.259 20.6286 178.775 19.6411C178.637 19.5519 177.457 18.75 177.132 18.75C176.842 18.75 176.625 18.9802 176.625 19.2698C176.625 19.4034 176.705 19.5371 176.777 19.6114C177.284 20.2128 177.689 20.7252 178.051 21.2969H178.044Z" fill="#3E3A39"/>
<path d="M186.374 28.9089C186.358 28.6176 186.109 28.403 185.813 28.4107L183.624 28.7403V18.6298C183.624 18.2542 183.624 17.25 182.456 17.25C181.287 17.25 181.334 18.2925 181.334 18.6298V29.0852L175.64 29.9514C175.5 29.9514 175.367 30.0204 175.266 30.12C175.172 30.2273 175.118 30.3576 175.126 30.4956C175.141 30.7792 175.375 30.9939 175.663 30.9939C175.671 30.9939 175.679 30.9939 175.694 30.9939L181.334 30.143V34.5965C181.334 34.9798 181.334 35.9993 182.479 35.9993C183.624 35.9993 183.624 34.9415 183.624 34.5965V29.7981L185.86 29.4608C186 29.4608 186.132 29.3918 186.234 29.2922C186.327 29.1849 186.382 29.0545 186.374 28.9166V28.9089Z" fill="#3E3A39"/>
<path d="M299.895 32.25C299.497 32.25 299.335 32.3807 298.885 32.7483C298.464 33.0996 297.277 33.982 295.44 34.6682C294.577 34.9868 294.37 35.0604 294.37 35.4362C294.37 35.7058 294.577 35.9999 294.953 35.9999C295.174 35.9999 296.775 35.7384 298.7 35.1584C300.574 34.5865 301.12 34.2107 301.12 33.4673C301.12 32.8546 300.515 32.2582 299.895 32.2582V32.25Z" fill="#3E3A39"/>
<path d="M297.907 31.4997H308.834C310.238 31.4997 310.87 30.9211 310.87 29.6387V24.3766C310.87 23.063 310.261 22.5 308.834 22.5H297.907C296.48 22.5 295.871 23.063 295.871 24.3766V29.6387C295.871 30.9445 296.48 31.4997 297.907 31.4997ZM298.099 25.0412V24.2984C298.099 23.7276 298.192 23.5712 298.817 23.5712H307.824C308.441 23.5712 308.541 23.751 308.541 24.2984V25.0412H298.099ZM298.099 27.6527V26.1124H308.541V27.6527H298.099ZM298.099 29.7169V28.7239H308.541V29.7169C308.541 30.2564 308.441 30.4206 307.824 30.4206H298.817C298.192 30.4206 298.099 30.2643 298.099 29.7169Z" fill="#3E3A39"/>
<path d="M298.504 21.7498H308.235C309.554 21.7498 310.12 21.2644 310.12 20.1163V18.8835C310.12 17.72 309.577 17.25 308.235 17.25H298.504C297.186 17.25 296.62 17.7354 296.62 18.8835V20.1163C296.62 20.9254 296.845 21.7498 298.504 21.7498ZM298.861 19.9468V19.0453C298.861 18.4443 298.931 18.3056 299.621 18.3056H307.049C307.739 18.3056 307.809 18.4443 307.809 19.0453V19.9468C307.809 20.5401 307.716 20.6865 307.049 20.6865H299.621C298.931 20.6865 298.861 20.5478 298.861 19.9468Z" fill="#3E3A39"/>
<path d="M309.93 33.1007C308.361 32.6052 306.57 32.25 306.239 32.25C305.848 32.25 305.62 32.4647 305.62 32.8199C305.62 33.1007 305.796 33.3072 306.106 33.4063C307.477 33.8854 308.434 34.2984 309.591 35.1161C310.66 35.8842 310.837 35.9999 311.183 35.9999C311.802 35.9999 312.369 35.4382 312.369 34.8187C312.369 34.1002 311.824 33.7202 309.93 33.109V33.1007Z" fill="#3E3A39"/>
<path d="M253.746 33.9534C253.746 34.8122 254.087 35.2495 254.748 35.2495C255.409 35.2495 255.751 34.8122 255.751 33.9534V24.2403C256.122 23.6859 256.872 22.5772 256.872 22.0541C256.872 21.3279 256.196 21 255.714 21C255.067 21 254.852 21.57 254.681 22.0228V22.0463C253.909 24.131 253.167 25.2944 251.808 27.1136C251.719 27.2307 251.622 27.3478 251.622 27.543C251.622 27.8319 251.852 28.0818 252.134 28.0818C252.431 28.0818 253.077 27.4493 253.738 26.7466V33.9612L253.746 33.9534Z" fill="#3E3A39"/>
<path d="M252.108 22.4998C252.637 22.4998 256.122 19.2123 256.122 18.2018C256.122 17.6161 255.542 17.25 255.013 17.25C254.622 17.25 254.318 17.3671 254.071 17.9309C253.368 19.5491 252.977 20.3325 251.868 21.5333C251.745 21.6651 251.622 21.8042 251.622 21.9946C251.622 22.2801 251.832 22.4998 252.1 22.4998H252.108Z" fill="#3E3A39"/>
<path d="M258.116 24C257.512 24 257.268 24.3383 257.229 24.9457C257.15 26.6602 257.025 28.3978 256.608 30.0585C256.546 30.3353 256.122 31.6961 256.122 31.7961C256.122 32.0114 256.302 32.2497 256.585 32.2497C256.868 32.2497 257.009 32.0882 257.409 31.2656C258.517 28.9206 259.121 25.7376 259.121 24.8919C259.121 24.2614 258.54 24 258.116 24Z" fill="#3E3A39"/>
<path d="M257.511 22.2901H259.51V34.0327C259.51 34.335 259.51 35.2493 260.549 35.2493C261.026 35.2493 261.587 35.0377 261.587 34.0479V22.2901H263.741C264.133 22.2901 264.372 22.0936 264.372 21.7687C264.372 21.3833 264.049 21.2473 263.741 21.2473H261.587V18.4515C261.587 17.6656 261.218 17.25 260.526 17.25C260.057 17.25 259.503 17.454 259.503 18.4515V21.2473H257.503C257.111 21.2473 256.872 21.4438 256.872 21.7687C256.872 22.0936 257.103 22.2901 257.503 22.2901H257.511Z" fill="#3E3A39"/>
<path d="M262.759 19.9283C263.105 20.8799 263.17 20.9999 263.557 20.9999C263.944 20.9999 264.371 20.6313 264.371 20.134C264.371 19.3968 262.839 18.068 262.597 18.0166C262.226 17.9394 262.122 18.1452 262.122 18.3509C262.122 18.5138 262.396 19.1139 262.557 19.4739C262.654 19.6797 262.726 19.8426 262.759 19.9283Z" fill="#3E3A39"/>
<path d="M269.719 22.5H265.104C264.698 22.5 264.451 22.7025 264.451 23.0374C264.451 23.3723 264.69 23.5514 265.104 23.5514H266.576V33.4348C266.576 34.0345 266.504 34.1747 265.796 34.1747H265.064C264.602 34.1747 264.372 34.3539 264.372 34.7121C264.372 35.0704 264.602 35.2495 265.064 35.2495H266.862C268.525 35.2495 268.756 34.424 268.756 33.5361V23.5514H269.719C270.133 23.5514 270.371 23.3567 270.371 23.014C270.371 22.8193 270.284 22.5 269.719 22.5Z" fill="#3E3A39"/>
<path d="M264.938 18.75H268.319C268.661 18.75 268.871 18.6087 268.871 18.375C268.871 18.1413 268.668 18 268.319 18H264.938C264.582 18 264.372 18.1413 264.372 18.375C264.372 18.6522 264.666 18.75 264.938 18.75Z" fill="#3E3A39"/>
<path d="M265.712 31.2107C265.926 31.085 265.918 30.7473 265.727 30.6059C265.491 30.4332 265.101 30.5038 264.826 30.4175C264.49 30.3154 264.108 30.119 264.016 29.7342C263.787 28.1007 263.986 26.8913 263.971 24.9357C263.971 24.3075 263.657 23.9776 263.069 24.0012C262.657 24.0169 262.099 24.2996 262.122 24.9436C262.176 26.3494 262.229 27.7551 262.428 29.1531C262.55 30.0248 262.794 30.873 263.627 31.2813C264.276 31.5955 265.093 31.5719 265.712 31.2028V31.2107Z" fill="#3E3A39"/>
<path d="M219.17 31.7411C217.671 33.2888 216.644 34.0823 214.239 34.9387C213.999 35.0173 213.857 35.2137 213.857 35.4572C213.857 35.7793 214.104 35.9993 214.336 35.9993C214.404 35.9993 214.456 35.9836 214.554 35.9679C214.591 35.96 214.643 35.9522 214.711 35.9365C217.701 35.1508 219.379 33.7288 220.181 33.0453C220.264 32.9746 220.339 32.9117 220.398 32.8646C222.909 34.8994 226.026 35.9758 226.371 35.9758C226.581 35.9758 226.873 35.7872 226.873 35.4415C226.873 35.1194 226.626 34.9623 226.416 34.868L226.393 34.8523C225.014 34.1923 222.939 33.1945 221.485 31.8589C224.408 28.9127 225.719 25.283 225.719 24.6859C225.719 24.0888 225.322 23.4446 224.213 23.4446H222.324C221.98 23.4446 221.852 23.3503 221.852 23.1146C221.852 22.8632 222.287 22.1011 222.706 21.3626C223.216 20.467 223.703 19.6184 223.703 19.2413C223.703 18.4164 223.134 18 222.01 18H210.829C210.312 18 210.207 18.2828 210.207 18.5185C210.207 19.0213 210.664 19.0606 210.807 19.0606H214.389C214.404 24.7959 213.774 30.6176 209.181 34.3966C209.076 34.4752 208.874 34.6244 208.874 34.8994C208.874 35.1744 209.106 35.4337 209.376 35.4337C209.698 35.4337 214.539 32.7546 215.82 25.8251C217.409 29.3841 218.158 30.6962 219.177 31.7411H219.17ZM220.428 21.0955C219.919 22.0697 219.432 22.9968 219.432 23.3189C219.432 23.7588 219.634 24.5052 221.013 24.5052H222.369C222.969 24.5052 223.141 24.5209 223.141 24.8116C223.126 25.0002 222.264 27.9857 220.219 30.5626C217.693 27.5143 217.011 23.6096 216.652 19.8463L216.629 19.0606H220.743C220.848 19.0606 221.088 19.0606 221.185 19.1785C221.223 19.2256 221.245 19.2806 221.238 19.3592C221.223 19.5713 220.818 20.3491 220.421 21.1033L220.428 21.0955Z" fill="#3E3A39"/>
<path d="M146.984 22.4998C148.078 22.4998 148.078 21.5059 148.078 21.182V20.4238C148.078 19.8275 148.153 19.6802 148.83 19.6802H160.104C160.766 19.6802 160.84 19.8275 160.84 20.4238V21.182C160.84 21.5428 160.84 22.4998 161.971 22.4998C162.738 22.4998 163.125 22.0581 163.125 21.182V20.2692C163.125 19.1428 162.567 18.6643 161.264 18.6643H155.594V17.722C155.594 16.6251 154.813 16.5 154.478 16.5C153.488 16.5 153.347 17.2656 153.347 17.722V18.6643H147.736C146.434 18.6643 145.875 19.1428 145.875 20.2692V21.182C145.875 22.0581 146.248 22.4998 146.992 22.4998H146.984Z" fill="#3E3A39"/>
<path d="M157.581 28.6051C158.518 30.0277 159.661 31.2314 160.989 32.1772C162.386 33.1621 163.868 33.7171 164.221 33.6389C164.505 33.5764 164.674 33.2715 164.612 32.9745C164.566 32.7478 164.405 32.6306 164.244 32.5446C162.57 31.6926 160.935 30.5905 159.239 27.5342C160.713 26.4555 161.611 25.4238 161.534 24.9C161.488 24.5718 161.312 24.2747 161.035 24.0715C160.774 23.8761 160.46 23.7979 160.176 23.8448C159.807 23.9074 159.615 24.1028 159.439 24.3763C159.055 24.9469 157.673 26.6978 156.729 27.3857C156.199 26.0413 155.378 24.8922 154.296 23.9855C154.833 23.5322 155.079 23.2586 155.409 22.899L155.432 22.8756H159.876C160.275 22.8756 160.521 22.6645 160.521 22.3128C160.521 21.961 160.291 21.75 159.876 21.75H149.514C149.115 21.75 148.869 21.961 148.869 22.3128C148.869 22.7271 149.199 22.8756 149.514 22.8756H152.431C151.732 23.7901 150.143 25.4003 146.973 26.7369C146.812 26.8151 146.505 26.9558 146.505 27.3153C146.505 27.6749 146.774 27.8781 147.027 27.8781C147.319 27.8781 148.777 27.3153 149.614 26.9402C150.611 26.4946 152.116 25.6895 153.367 24.7515L153.39 24.7828C153.521 24.9548 153.643 25.1111 153.82 25.4081C151.832 27.7218 148.838 29.3945 146.866 30.1136C146.543 30.2231 146.413 30.395 146.413 30.6764C146.413 30.9813 146.658 31.2392 146.95 31.2392C147.303 31.2392 151.755 29.8792 154.687 27.3232C154.772 27.5655 154.833 27.7765 154.918 28.097L154.941 28.1752C152.845 30.5279 149.821 32.443 146.436 33.5764C146.144 33.678 145.875 33.8187 145.875 34.1782C145.875 34.5378 146.167 34.7176 146.374 34.7176C146.628 34.7176 151.463 33.5373 155.209 30.4967C155.24 32.4977 155.033 33.6936 154.58 34.1626C154.296 34.4518 153.943 34.444 153.567 34.4362C153.505 34.4362 153.436 34.4362 153.382 34.4362L151.893 34.3346C151.487 34.3346 151.249 34.5378 151.249 34.8973C151.249 35.421 152.761 35.9995 154.795 35.9995C157.136 35.9995 157.489 33.334 157.489 31.7473C157.489 30.7233 157.389 29.7619 157.19 28.8786C157.297 28.8161 157.397 28.7614 157.497 28.6989L157.589 28.6441L157.581 28.6051Z" fill="#3E3A39"/>
<path d="M189.745 29.2496C190.472 29.2496 190.715 28.8065 190.715 27.9663V26.8741C190.715 26.2859 190.813 26.1943 191.404 26.1943H203.881C204.457 26.1943 204.57 26.3012 204.57 26.8741V27.9434C204.57 28.7836 204.79 29.2496 205.51 29.2496C206.229 29.2496 206.623 28.7989 206.623 27.9434V26.6297C206.623 25.186 205.479 25.1249 204.805 25.1249L205.139 19.2283C205.169 18.8235 205.048 18.4645 204.798 18.1895C204.517 17.884 204.093 17.7159 203.608 17.7159H201.108C200.714 17.7159 200.472 17.9145 200.472 18.243C200.472 18.5714 200.699 18.77 201.108 18.77H202.51C202.661 18.77 202.79 18.8158 202.874 18.9075C202.949 18.9839 202.987 19.0984 202.98 19.2283L202.919 20.2671H201.063C200.624 20.2671 200.472 20.542 200.472 20.7941C200.472 21.1302 200.699 21.3288 201.108 21.3288H202.851L202.775 22.7113H201.002C200.699 22.7113 200.472 22.9481 200.472 23.246C200.472 23.5744 200.699 23.7577 201.108 23.7577H202.714L202.639 25.1173H199.813C200.025 24.9416 200.177 24.6896 200.177 24.4222C200.177 24.0403 199.919 23.8341 199.358 23.4369C199.881 23.0703 200.199 22.8488 200.199 22.4287C200.199 21.9627 199.783 21.5426 199.26 21.5426C199.078 21.5426 198.919 21.6038 198.76 21.7412C198.662 21.8635 198.139 22.4287 198.018 22.5432C197.715 22.3599 197.04 21.9398 196.798 21.9398C196.518 21.9398 196.336 22.1995 196.336 22.421C196.336 22.5585 196.412 22.6807 196.472 22.7418C196.556 22.8259 197.033 23.1849 197.131 23.2689C196.593 23.6737 196.434 23.7501 195.093 24.4375C194.934 24.5139 194.836 24.6361 194.836 24.8423C194.836 24.9493 194.881 25.0409 194.934 25.1173H192.692L192.639 23.7577H194.306C194.601 23.7577 194.836 23.5286 194.836 23.246C194.836 22.9099 194.601 22.7113 194.2 22.7113H192.586L192.51 21.4128H194.237C194.707 21.4128 194.828 21.0767 194.828 20.8781C194.828 20.4886 194.503 20.3511 194.192 20.3511H192.457L192.404 19.3887C192.389 19.1137 192.389 19.1061 193.525 19.0297H193.578C194.654 18.9686 195.374 18.9304 195.374 18.136C195.374 17.7159 195.025 17.25 194.518 17.25C194.359 17.25 193.927 17.3951 193.434 17.5708C193.26 17.6319 193.109 17.6854 193.041 17.7083C192.381 17.8763 191.851 17.9222 191.381 17.9603H191.313C190.609 18.0062 190.2 18.5332 190.245 19.3352L190.541 25.1173C189.745 25.1173 188.624 25.1631 188.624 26.622V27.9511C188.624 28.776 189.018 29.2343 189.738 29.2343L189.745 29.2496ZM198.055 24.1931C198.252 24.4146 198.298 24.4757 198.677 25.0027C198.715 25.0486 198.752 25.0944 198.798 25.1402H195.942C196.586 24.9034 197.502 24.4986 198.055 24.2007V24.1931Z" fill="#3E3A39"/>
<path d="M199.081 33.8524C199.111 33.7633 199.134 33.6666 199.149 33.5626C199.149 33.5254 199.164 33.4883 199.171 33.4511C199.171 33.4288 199.179 33.4065 199.186 33.3768H199.179C199.186 33.2802 199.201 33.1836 199.201 33.0721V31.2363H206.068C206.263 31.2363 206.624 31.1769 206.624 30.7904C206.624 30.3816 206.263 30.3445 206.068 30.3445H199.201V29.9357C199.201 29.8391 199.179 29.7796 199.164 29.7053C202.657 28.1966 202.657 28.0033 202.657 27.6392C202.657 27.6169 202.635 27 201.846 27H193.567C193.371 27 193.011 27.0595 193.011 27.4459C193.011 27.8696 193.424 27.8919 193.567 27.8919H199.089C199.209 27.8919 199.284 27.9662 199.284 28.0628C199.284 28.2783 198.593 28.858 198.57 28.8729C198.472 28.8357 198.352 28.7986 198.149 28.7986C197.436 28.7986 197.075 29.2445 197.075 29.9357V30.3445H189.93C189.713 30.3445 189.375 30.4039 189.375 30.7904C189.375 31.1769 189.735 31.2363 189.93 31.2363H197.075V33.0721C197.075 33.191 197.015 33.8227 196.467 33.8896C195.595 34.0011 194.123 33.8673 194.123 33.8673C193.942 33.8673 193.567 33.9045 193.567 34.3132C193.567 34.722 194.934 35.2497 196.962 35.2497C198.059 35.2497 198.818 34.6551 199.089 33.845L199.081 33.8524Z" fill="#3E3A39"/>
<path d="M283.47 25.2384V23.1395C285.954 25.7866 290.508 27.2512 290.853 27.2512C291.101 27.2512 291.371 27.0476 291.371 26.7108C291.371 26.4289 291.213 26.2487 290.861 26.1156C287.785 24.9017 285.736 23.0142 285.061 22.2388H290.313C290.703 22.2388 290.928 22.0431 290.928 21.6985C290.928 21.3774 290.696 21.1816 290.313 21.1816H283.47V19.5447C285.646 19.4429 287.319 19.2471 287.957 19.1061C288.355 19.02 288.767 18.8633 288.767 18.3073C288.767 17.8061 288.332 17.25 287.755 17.25C287.589 17.25 287.064 17.391 286.494 17.5476C286.344 17.5868 286.224 17.6181 286.156 17.6338C282.33 18.4953 276.995 18.5344 275.968 18.5344C275.36 18.5344 275.3 18.9103 275.3 19.0748C275.3 19.3568 275.502 19.5369 275.697 19.5917C275.96 19.6622 277.626 19.6779 279.224 19.6779C280.117 19.6779 280.927 19.6622 281.272 19.6387V21.1894H274.505C274.114 21.1894 273.889 21.3852 273.889 21.7298C273.889 21.9256 273.972 22.2467 274.505 22.2467H279.614C278.549 23.4371 276.403 25.0505 273.874 26.0843C273.634 26.1861 273.372 26.3035 273.372 26.6795C273.372 27.0554 273.619 27.2199 273.867 27.2199C274.219 27.2199 278.534 25.8258 281.265 23.1943V25.2463C281.265 25.6222 281.325 25.912 281.445 26.1391C281.28 26.0529 281.085 25.9981 280.874 25.9981C280.484 25.9981 280.184 26.1782 279.929 26.5777C279.651 27.0162 279.126 27.8464 278.699 28.4495H273.994C273.604 28.4495 273.387 28.6452 273.387 28.9898C273.387 29.3344 273.612 29.5067 273.994 29.5067H277.858L276.868 30.6659C276.823 30.7207 276.778 30.7755 276.748 30.8225L276.553 31.0261C276.388 31.1984 276.298 31.4255 276.298 31.6683C276.298 31.9111 276.388 32.1382 276.553 32.3105L276.598 32.3575C276.763 32.5298 276.98 32.6238 277.213 32.6238C277.446 32.6238 277.663 32.5298 277.828 32.3575L277.866 32.3184C279.389 32.5611 280.604 32.7491 282.007 33.1094C279.681 34.5583 275.202 34.8324 274.317 34.8715C274.099 34.8715 273.589 34.8715 273.589 35.4119C273.589 35.7722 273.814 35.9523 274.257 35.9523C275.607 35.9523 277.476 35.8035 278.811 35.592C282.142 35.083 283.575 34.0727 284.071 33.7124C285.354 34.1745 286.749 34.7149 288.332 35.7252C288.61 35.9053 288.805 35.9993 289.068 35.9993C289.638 35.9993 290.2 35.4432 290.2 34.8794C290.2 34.5191 290.005 34.2058 289.675 34.0492C288.512 33.4696 286.757 32.9214 285.489 32.5533C286.119 31.9189 286.884 31.0026 287.379 29.5302H290.696C291.086 29.5302 291.311 29.3344 291.311 28.9898C291.311 28.6452 291.086 28.473 290.696 28.473H287.492C287.387 27.9717 286.959 27.588 286.442 27.588H286.284C285.766 27.588 285.339 27.9639 285.234 28.473H281.317C281.917 27.7368 282.082 27.5331 282.082 27.165C282.082 26.9692 282.022 26.7735 281.91 26.5933C282.045 26.6481 282.202 26.6795 282.375 26.6795C283.103 26.6795 283.47 26.2096 283.47 25.2776V25.2384ZM279.081 31.1671C279.081 31.1044 279.111 31.0496 279.179 30.9791C279.374 30.7598 280.207 29.773 280.432 29.4989H284.978C284.813 29.9845 284.378 31.0104 283.358 32.0129C281.94 31.7466 280.604 31.5273 279.291 31.355C279.156 31.3316 279.081 31.2689 279.081 31.1671Z" fill="#3E3A39"/>
<path d="M237.69 20.7285H241.514V23.9734H238.115C237.72 23.9734 237.484 24.167 237.484 24.5155C237.484 24.9105 237.811 25.0576 238.115 25.0576H244.395C244.578 25.0576 244.798 25.1041 244.798 25.3442C244.798 25.4526 244.775 25.592 244.752 25.7159L244.737 25.7933C244.334 28.1554 243.224 29.6036 242.776 30.1535C241.977 29.0615 241.453 27.8766 241.164 26.5368C241.08 26.1651 240.928 25.4758 239.986 25.4758C239.317 25.4758 238.724 25.9869 238.724 26.5755C238.724 27.1641 239.545 29.4332 241.491 31.4778C239.636 33.0886 237.94 33.6152 236.291 34.1264C236.169 34.1728 235.873 34.2735 235.873 34.6607C235.873 34.9473 236.108 35.2028 236.382 35.2028C236.61 35.2028 239.932 34.5678 242.662 32.5697C245.163 34.5833 248.09 35.2493 248.113 35.2493C248.356 35.2493 248.622 35.0402 248.622 34.7072C248.622 34.3742 248.409 34.2735 248.288 34.2038L248.242 34.1883C246.592 33.4913 245.33 32.895 243.916 31.5242C245.566 29.9289 246.577 28.1864 247.102 26.0489L247.132 25.9018C247.193 25.6384 247.261 25.3364 247.261 25.0886C247.261 24.4226 246.744 23.9889 245.946 23.9889H243.772V20.744H247.71C248.014 20.744 248.341 20.6046 248.341 20.2018C248.341 19.8611 248.113 19.6597 247.71 19.6597H243.772V17.8243C243.772 16.9569 243.376 16.5 242.631 16.5C241.886 16.5 241.514 16.9724 241.514 17.8243V19.6597H237.69C237.294 19.6597 237.066 19.8533 237.066 20.2018C237.066 20.5503 237.302 20.744 237.69 20.744V20.7285Z" fill="#3E3A39"/>
<path d="M235.211 27.5313C235.842 27.2506 236.458 26.97 237.051 26.6893C237.397 26.5256 237.428 26.2839 237.312 26.0267C237.197 25.7694 236.981 25.6369 236.635 25.7928C236.173 26.0111 235.696 26.2216 235.211 26.4399V21.9416H236.774C237.066 21.9416 237.305 21.6999 237.305 21.4037C237.305 21.1074 237.066 20.8657 236.774 20.8657H235.211V17.6382C235.211 17.0067 234.711 16.5 234.088 16.5C233.464 16.5 232.964 17.0067 232.964 17.6382V20.8657H230.847C230.555 20.8657 230.316 21.1074 230.316 21.4037C230.316 21.6999 230.555 21.9416 230.847 21.9416H232.964V27.4066C232.04 27.7886 231.117 28.155 230.232 28.498C229.878 28.6305 229.816 28.88 229.916 29.1451C230.016 29.4101 230.209 29.5582 230.563 29.4257C231.348 29.1373 232.156 28.8176 232.972 28.4902V33.3471C232.972 33.3471 232.956 33.924 232.525 33.9786C231.817 34.0721 230.994 33.963 230.978 33.963C230.647 33.963 230.463 34.1189 230.463 34.3995C230.463 34.8049 231.686 35.2493 233.326 35.2493C234.195 35.2493 234.888 34.7815 235.134 34.0253V34.0097C235.165 33.9318 235.18 33.846 235.196 33.7681V33.7369C235.196 33.7369 235.211 33.6901 235.211 33.6745C235.211 33.6667 235.211 33.6589 235.211 33.6511C235.211 33.6355 235.211 33.6277 235.211 33.6121V33.5498C235.211 33.4874 235.219 33.4172 235.219 33.3471V27.5391L235.211 27.5313Z" fill="#3E3A39"/>
<path d="M197.352 19.5149C196.969 19.9124 196.815 20.0099 195.569 20.9399C195.529 20.9774 195.374 21.0974 195.374 21.3148C195.374 21.5698 195.586 21.7498 195.846 21.7498C196.147 21.7498 197.393 20.9999 198.247 20.4074C198.337 20.4824 198.654 20.8799 198.744 20.9624C198.849 21.0974 199.045 21.3148 199.427 21.3148C199.94 21.3148 200.412 20.8424 200.412 20.3624C200.412 19.9499 200.111 19.7699 199.574 19.4099C200.412 18.7199 200.624 18.5175 200.624 18.1425C200.624 17.6475 200.087 17.25 199.59 17.25C199.265 17.25 198.988 17.385 198.841 17.5875C198.76 17.7225 198.304 18.42 198.174 18.5775C197.808 18.3825 196.929 17.9025 196.668 17.9025C196.367 17.9025 196.172 18.1575 196.172 18.36C196.172 18.435 196.212 18.5775 196.343 18.6974C196.448 18.7724 197.311 19.4849 197.327 19.5074L197.352 19.5149Z" fill="#3E3A39"/>
<path d="M79.5067 9.45502C78.7929 -1.16741 46.7783 -6.31444 0.381348 35.9996H10.1999C40.468 1.01664 83.7212 -2.61072 77.054 15.9232C77.054 15.9232 90.9048 -4.26021 113.268 3.27705C113.427 3.33051 113.556 3.28469 113.602 3.19305C113.716 2.96395 113.405 2.84941 113.405 2.84941C109.782 0.902089 106.775 0.000976562 102.774 0.000976562C88.1711 0.000976562 79.4992 9.45502 79.4992 9.45502" fill="url(#paint0_linear_280_1633)"/>
<path d="M50.627 17.7614C48.3862 17.7614 48.2075 20.1841 48.2075 20.1841L46.674 28.4427L45.4754 26.439L41.1129 19.1632C40.3983 17.9747 39.1327 17.251 37.7629 17.251C35.8869 17.251 34.2789 18.6223 33.929 20.5041L31.1299 35.4974H34.8819C37.1227 35.4974 37.3014 33.0671 37.3014 33.0671L38.8349 24.8086L40.0335 26.8123L44.396 34.088C45.1106 35.2765 46.3762 36.0003 47.746 36.0003C49.622 36.0003 51.23 34.6289 51.5799 32.7471L54.379 17.7538H50.627V17.7614Z" fill="#004097"/>
<path d="M79.925 22.3262L77.9357 32.5784C77.9357 32.5784 77.0724 35.2356 79.8575 35.2356H83.1755L85.6753 22.3262H90.187C91.1854 22.3262 91.8385 21.935 92.2589 21.5143C92.6343 21.1305 92.8745 20.6286 92.9721 20.1046L93.3774 18.001H62.8542C62.6591 18.001 57.8546 18.3479 56.7811 23.4629C55.595 29.1241 61.3378 28.9396 61.3453 28.9396H67.2683C68.1767 28.9396 68.8898 29.0798 68.7322 29.9139C68.5745 30.7406 67.8163 30.9177 66.8855 30.9177L57.5618 30.9325C56.5634 30.9325 55.9103 31.3237 55.4899 31.737C55.1146 32.1208 54.8744 32.6227 54.7768 33.1468L54.3789 35.2503H68.2517C72.4481 35.2503 73.7543 31.9067 74.1372 30.1796C75.3758 24.5258 70.3687 24.5996 70.166 24.5996H63.7551C62.8617 24.5996 62.2086 24.2231 62.3663 23.4186C62.5239 22.6067 63.3197 22.3189 64.2956 22.3189L79.94 22.3336L79.925 22.3262Z" fill="#004097"/>
<path d="M110.782 18.1355C109.655 17.5458 107.929 17.251 105.621 17.251C104.747 17.251 103.888 17.2888 103.052 17.3493C100.161 17.5383 97.9684 18.128 96.4578 19.1335C94.9472 20.139 93.9197 21.6737 93.3829 23.7376L92.5548 26.981L92.4858 27.2834L91.9874 30.0958C91.8647 30.7913 91.8417 31.4112 91.9337 31.9707C92.3708 34.6621 95.0162 36.0003 99.8701 36.0003C100.399 36.0003 100.89 35.9927 101.342 35.9776C101.787 35.9625 102.224 35.9247 102.638 35.8793C105.307 35.6449 107.354 35.0401 108.773 34.0649C110.191 33.0896 111.18 31.6002 111.733 29.5892C111.809 29.249 112.078 28.0999 112.116 27.8126H107.293C106.618 27.8126 105.997 28.2133 105.752 28.8408C105.606 29.2037 105.475 29.3549 105.299 29.6648C105.299 29.6648 104.295 31.6683 101.166 31.5776C100.254 31.5473 99.0803 31.381 98.5282 30.5569C98.1295 29.9597 98.2445 29.0373 98.3595 28.3645C98.4439 27.8353 98.3978 27.9335 98.8043 26.1418C99.0803 24.9019 99.4944 23.594 100.484 22.7019C101.434 21.8476 102.715 21.5225 103.98 21.5527C104.663 21.5679 105.383 21.6586 105.982 22.0139C106.319 22.2105 106.595 22.5053 106.725 22.8758C106.779 23.0194 106.817 23.1782 106.817 23.3294C106.848 23.904 107.331 24.3576 107.914 24.3576H112.599L112.699 23.7376C112.89 22.6414 112.929 21.7115 112.806 20.9479C112.599 19.6627 111.932 18.7252 110.797 18.1355" fill="#004097"/>
<defs>
<linearGradient id="paint0_linear_280_1633" x1="0.381348" y1="18.0003" x2="113.632" y2="18.0003" gradientUnits="userSpaceOnUse">
<stop stop-color="#DE7403"/>
<stop offset="1" stop-color="#FFDA2A"/>
</linearGradient>
</defs>
</svg>
