<svg width="238" height="481" viewBox="0 0 238 481" fill="none" xmlns="http://www.w3.org/2000/svg">
<path d="M85.32 86.0059C83.684 89.7765 79.6099 92.0952 75.5313 92.3532C71.4526 92.6112 67.4123 91.0573 64.047 88.709C54.9526 82.3742 50.6083 69.9146 53.794 59.2901C56.9798 48.6655 66.612 42.9877 77.3831 40.3023C79.6968 39.7299 82.2066 41.0945 83.45 43.1387C84.7233 45.1737 84.9336 47.6957 84.6723 50.0664C84.2921 53.5534 82.9245 56.9151 80.7808 59.6617C83.0171 60.8803 85.1089 61.9464 86.5984 64.0467C88.058 66.1561 88.7579 68.8892 87.9209 71.304C87.0838 73.7188 84.4988 75.5522 81.9952 75.0694C85.6225 76.8799 86.9652 82.2653 85.32 86.0059Z" fill="#2935A4"/>
<path d="M208.323 455.535C203.124 453.469 199.335 448.865 194.293 446.453C187.246 443.102 178.289 444.293 172.057 439.595C168.8 437.121 166.733 433.144 166.545 429.072C165.919 413.884 181.734 412.036 190.848 416.702C196.892 419.803 203.845 423.874 210.077 426.567C215.495 428.916 219.848 429.918 224.671 430.638C229.494 431.359 234.599 434.177 235.632 438.937C236.666 443.698 233.221 448.333 229.369 451.308C223.418 455.817 215.276 458.291 208.323 455.535Z" fill="#2935A4"/>
<path d="M215.587 219.938C210.545 221.598 204.939 221.378 200.022 219.437C197.579 218.466 195.199 217.025 193.821 214.77C192.6 212.766 192.318 210.323 192.631 208.006C192.944 205.689 193.884 203.496 194.917 201.429C196.921 197.484 199.552 193.788 202.997 191.032C209.323 185.99 217.716 184.612 225.671 183.391C227.676 183.078 229.899 182.796 231.653 183.829C233.532 184.957 234.346 187.431 233.908 189.56C233.469 191.69 231.966 193.538 230.15 194.759C231.496 195.73 232.217 198.392 232.06 199.519C231.841 200.866 230.212 203.935 228.364 203.716C228.897 205.532 228.74 205.407 228.364 207.254C227.989 209.102 226.392 210.856 224.512 210.668C226.11 216.023 219.564 218.622 215.587 219.938Z" fill="white"/>
<path d="M235.508 200.083C235.257 201.711 234.099 204.31 232.157 205.876C232.126 206.283 232.032 206.722 231.938 207.223L231.781 207.943C231.343 210.167 229.965 212.077 228.211 213.142C227.835 216.587 225.11 220.439 216.655 223.226C214.087 224.071 211.362 224.51 208.543 224.51C205.192 224.51 201.81 223.852 198.741 222.662C195.077 221.222 192.415 219.155 190.849 216.587C189.314 214.081 188.719 210.856 189.189 207.536C189.627 204.467 190.911 201.68 191.82 199.863C194.294 195.009 197.332 191.126 200.839 188.339C208.042 182.608 217.532 181.167 225.142 179.977C226.144 179.82 227.334 179.664 228.556 179.664C230.435 179.664 232.032 180.071 233.41 180.885C236.448 182.702 238.076 186.554 237.293 190.28C236.917 192.097 236.04 193.85 234.694 195.354C235.445 197.045 235.696 198.892 235.508 200.083ZM231.687 183.829C230.748 183.265 229.683 183.109 228.587 183.109C227.616 183.109 226.645 183.234 225.706 183.391C217.72 184.612 209.326 186.021 203.031 191.032C199.555 193.788 196.956 197.483 194.951 201.429C193.887 203.496 192.978 205.688 192.665 208.006C192.352 210.323 192.634 212.766 193.855 214.77C195.233 217.025 197.613 218.466 200.056 219.437C202.75 220.501 205.693 221.065 208.606 221.065C210.986 221.065 213.366 220.689 215.621 219.938C219.599 218.622 226.144 216.023 224.578 210.668C224.672 210.668 224.766 210.668 224.829 210.668C226.582 210.668 228.086 209.008 228.43 207.254C228.806 205.406 228.963 205.532 228.43 203.715C228.493 203.715 228.555 203.715 228.618 203.715C230.403 203.715 231.938 200.834 232.126 199.519C232.314 198.36 231.593 195.729 230.215 194.759C232 193.506 233.535 191.69 233.973 189.56C234.381 187.43 233.566 184.956 231.687 183.829Z" fill="#2935A4"/>
<path d="M145.906 232.652C132.596 232.119 122.261 230.428 114.369 227.923C113.461 227.672 112.522 227.328 111.551 226.952C104.41 224.29 99.5248 220.845 96.393 216.962C85.2125 207.191 73.1239 191.908 62.6638 173.337C41.6808 136.07 13.6513 114.806 32.6612 99.6795C56.8699 80.4508 89.5344 109.106 110.517 146.373C119.318 162 125.519 177.408 128.776 190.624C136.448 190.937 145.311 191.407 155.49 191.814C176.253 192.629 193.228 192.973 205.128 194.821C210.734 204.905 207.227 215.866 202.529 226.2C188.248 230.961 168.142 233.529 145.906 232.652Z" fill="#FFD371"/>
<path d="M165.515 193.882L155.462 193.506C150.169 193.287 145.221 193.067 140.586 192.848C136.358 192.66 132.412 192.473 128.717 192.316C127.965 192.285 127.307 191.752 127.119 191.001C123.737 177.346 117.473 162.189 109.018 147.188C102.19 135.037 83.8381 106.037 61.1327 99.085L59.4729 98.5839L60.4751 95.2957L62.1349 95.7967C86.0304 103.125 104.978 133.001 111.993 145.497C120.355 160.31 126.587 175.311 130.126 188.934C133.446 189.059 136.953 189.215 140.711 189.403C145.315 189.623 150.263 189.842 155.556 190.061L165.609 190.437C181.581 191.001 195.392 191.533 205.414 193.099C205.946 193.193 206.385 193.506 206.667 193.976C212.68 204.78 209.015 216.179 204.13 226.89C203.942 227.328 203.566 227.673 203.096 227.829C189.943 232.214 172.969 234.563 154.585 234.563C151.672 234.563 148.76 234.5 145.785 234.375C132.976 233.874 122.202 232.245 113.841 229.583C112.87 229.301 111.868 228.957 110.865 228.55C103.819 225.919 98.4635 222.38 95.1751 218.246C83.3683 207.912 71.2797 192.253 61.1014 174.183L60.2558 172.68L63.2623 170.989L64.1079 172.492C74.0983 190.249 85.9364 205.563 97.6806 215.866C100.781 219.718 105.635 222.913 112.149 225.355C113.058 225.731 113.935 226.044 114.843 226.295C122.954 228.894 133.414 230.46 145.91 230.961C166.893 231.807 186.498 229.615 201.249 224.823C205.477 215.397 208.577 205.469 203.973 196.418C194.327 194.947 180.955 194.446 165.515 193.882Z" fill="#2935A4"/>
<path d="M200.092 168.452L234.886 130.809L215.876 223.445L190.978 258.677L200.092 168.452Z" fill="#2935A4"/>
<path d="M194.701 165.133L229.496 127.49L210.486 220.125L185.588 255.357L194.701 165.133Z" fill="#2935A4"/>
<path d="M234.886 130.809L221.262 151.447L229.499 127.49L234.886 130.809Z" fill="#2935A4"/>
<path d="M194.201 236.629L190.975 258.677L185.589 255.357L194.201 236.629Z" fill="#2935A4"/>
<path d="M218.655 196.575C217.34 196.105 216.087 195.197 215.68 193.85C215.398 192.942 215.555 191.971 215.868 191.094C216.776 188.37 219.344 186.772 221.536 184.987C224.042 182.952 231.057 181.699 232.31 184.987C233.469 188.025 230.775 191.47 228.708 193.881C226.297 196.731 222.1 197.859 218.655 196.575Z" fill="white"/>
<path d="M217.786 204.874C216.47 204.529 215.218 203.871 214.81 202.869C214.529 202.212 214.685 201.491 214.998 200.834C215.907 198.829 218.161 197.264 220.667 196.324C222.922 195.479 228.371 193.568 229.624 195.98C230.783 198.234 229.937 201.116 227.87 202.901C225.427 204.968 221.231 205.813 217.786 204.874Z" fill="white"/>
<path d="M216.056 211.294C214.929 210.918 213.864 210.291 213.551 209.446C213.363 208.882 213.551 208.318 213.864 207.817C214.804 206.251 216.871 205.187 219.188 204.623C221.255 204.122 226.141 202.995 227.08 205.03C227.957 206.94 227.017 209.195 225.076 210.479C222.79 211.982 219.063 212.327 216.056 211.294Z" fill="white"/>
<path d="M215.433 216.398C214.525 216.085 213.617 215.553 213.398 214.895C213.241 214.457 213.398 213.987 213.648 213.549C214.431 212.265 216.122 211.388 218.001 210.949C219.693 210.542 223.701 209.634 224.484 211.294C225.205 212.86 224.422 214.707 222.824 215.741C220.914 216.962 217.876 217.244 215.433 216.398Z" fill="white"/>
<path d="M216.967 198.767C216.905 198.767 216.811 198.767 216.748 198.767C215.903 198.767 215.151 198.141 215.026 197.264C214.9 196.325 215.558 195.448 216.529 195.322C219.222 194.978 221.884 194.414 224.484 193.631C225.392 193.381 226.363 193.882 226.645 194.79C226.926 195.698 226.394 196.669 225.486 196.951C222.699 197.797 219.849 198.392 216.967 198.767Z" fill="#2935A4"/>
<path d="M216.314 207.035C216.251 207.035 216.157 207.035 216.094 207.035C215.249 207.035 214.497 206.408 214.372 205.532C214.247 204.592 214.936 203.715 215.875 203.59C218.537 203.245 221.199 202.682 223.83 201.899C224.738 201.617 225.709 202.149 225.96 203.057C226.241 203.966 225.709 204.936 224.801 205.218C222.045 206.064 219.164 206.659 216.314 207.035Z" fill="#2935A4"/>
<path d="M213.111 214.175C213.049 214.175 212.955 214.175 212.892 214.175C212.047 214.175 211.295 213.549 211.17 212.672C211.044 211.732 211.702 210.855 212.673 210.73C215.366 210.386 218.028 209.822 220.628 209.039C221.536 208.788 222.507 209.289 222.789 210.198C223.07 211.106 222.538 212.077 221.63 212.359C218.874 213.173 215.993 213.799 213.111 214.175Z" fill="#2935A4"/>
<path d="M191.569 415.857C191.068 419.991 189.471 424.25 186.151 426.755C182.831 429.292 177.539 429.417 174.814 426.254C173.06 424.219 172.716 421.369 172.402 418.707C171.713 412.318 171.024 405.929 170.993 399.509C170.993 396.033 171.275 392.244 173.686 389.738C177.476 385.761 190.504 383.099 192.822 389.801C193.918 392.933 192.446 396.785 192.039 399.885C191.35 405.209 192.195 410.564 191.569 415.857Z" fill="white"/>
<path d="M193.26 416.045C192.634 421.338 190.473 425.628 187.185 428.134C185.337 429.543 182.863 430.357 180.389 430.357C177.821 430.357 175.252 429.449 173.467 427.382C171.306 424.877 170.931 421.432 170.649 418.864C169.96 412.538 169.271 406.024 169.239 399.51C169.208 395.752 169.584 391.493 172.402 388.549C175.284 385.542 182.706 383.068 188.312 384.321C191.412 385.01 193.511 386.701 194.419 389.269C195.358 391.994 194.732 394.937 194.2 397.568C194.012 398.476 193.824 399.322 193.73 400.136C193.385 402.704 193.448 405.272 193.479 407.965C193.542 410.596 193.605 413.321 193.26 416.045ZM191.193 390.397C190.723 389.019 189.502 388.11 187.623 387.703C186.871 387.547 186.057 387.453 185.211 387.453C181.265 387.453 176.693 389.113 174.939 390.96C172.966 393.027 172.716 396.441 172.716 399.51C172.747 405.836 173.436 412.287 174.125 418.519C174.407 421.212 174.783 423.561 176.129 425.127C178.29 427.664 182.612 427.288 185.118 425.378C188.531 422.778 189.565 418.143 189.847 415.638C190.16 413.164 190.097 410.659 190.066 408.028C190.034 405.304 189.972 402.516 190.348 399.698C190.473 398.79 190.661 397.85 190.88 396.848C191.318 394.562 191.82 392.213 191.193 390.397Z" fill="#2935A4"/>
<path d="M168.515 321.029C159.997 321.185 151.635 321.123 143.148 320.121C125.266 317.991 107.79 313.325 90.2835 309.316C74.3427 305.652 55.0823 300.297 42.7117 289.586C32.69 280.88 27.1155 267.978 24.7667 254.918C14.4318 197.326 43.6826 227.015 49.3198 228.706C65.7617 233.779 82.3288 238.414 98.8333 243.362C116.841 248.749 134.661 254.824 152.23 261.589C160.999 264.971 169.737 268.51 178.381 272.205C185.959 275.462 192.661 278.532 198.612 284.513C203.873 289.806 204.437 302.426 200.867 309.003C193.476 322.595 183.11 320.747 168.515 321.029Z" fill="#009CE2"/>
<path d="M182.553 418.205C177.542 418.237 172.563 415.763 168.867 411.441C164.483 386.826 162.948 360.676 164.044 335.466C164.451 326.227 165.234 316.863 167.959 308.314C170.684 299.764 175.6 291.966 182.302 288.49C189.005 284.983 197.617 285.515 202.252 292.593C204.695 332.365 202.69 372.545 196.333 411.597C192.7 415.888 187.533 418.174 182.553 418.205Z" fill="#009CE2"/>
<path d="M172.997 479.619C167.799 477.552 164.009 472.948 158.967 470.537C151.92 467.186 142.964 468.407 136.731 463.678C133.474 461.204 131.407 457.227 131.219 453.156C130.593 437.967 146.408 436.119 155.522 440.786C161.566 443.886 168.55 447.957 174.782 450.651C180.2 452.999 184.554 454.001 189.377 454.722C194.199 455.442 199.304 458.261 200.338 463.021C201.371 467.781 197.926 472.416 194.074 475.391C188.092 479.932 179.95 482.406 172.997 479.619Z" fill="#2935A4"/>
<path d="M156.239 439.94C155.738 444.074 154.141 448.333 150.821 450.838C147.502 453.375 142.209 453.5 139.484 450.337C137.731 448.302 137.386 445.452 137.073 442.79C136.384 436.401 135.695 430.012 135.664 423.592C135.632 420.148 135.945 416.327 138.357 413.822C142.146 409.844 155.175 407.182 157.492 413.884C158.588 417.016 157.116 420.868 156.709 423.968C156.02 429.324 156.866 434.647 156.239 439.94Z" fill="white"/>
<path d="M157.932 440.159C157.306 445.451 155.145 449.742 151.856 452.247C150.009 453.657 147.535 454.471 145.06 454.471C142.492 454.471 139.924 453.563 138.139 451.496C135.978 448.99 135.602 445.514 135.321 442.946C134.632 436.651 133.943 430.106 133.911 423.623C133.88 419.865 134.256 415.606 137.074 412.662C139.956 409.656 147.378 407.213 152.984 408.435C156.084 409.124 158.214 410.815 159.091 413.383C160.03 416.107 159.404 419.082 158.872 421.682C158.684 422.559 158.496 423.436 158.402 424.25C158.057 426.818 158.12 429.354 158.151 432.079C158.214 434.71 158.277 437.434 157.932 440.159ZM155.865 414.51C155.395 413.132 154.174 412.224 152.295 411.817C151.543 411.66 150.729 411.566 149.883 411.566C145.937 411.566 141.365 413.226 139.611 415.043C137.638 417.11 137.388 420.523 137.388 423.592C137.419 429.918 138.108 436.338 138.797 442.602C139.079 445.295 139.455 447.644 140.801 449.209C142.962 451.746 147.284 451.37 149.789 449.46C153.203 446.861 154.237 442.226 154.518 439.72C154.832 437.246 154.769 434.741 154.738 432.11C154.706 429.386 154.644 426.599 155.02 423.78C155.145 422.872 155.333 421.932 155.552 420.93C155.99 418.675 156.491 416.327 155.865 414.51Z" fill="#2935A4"/>
<path d="M139.735 321.812C125.203 320.058 110.766 316.645 96.8295 313.356C93.4472 312.573 90.0649 311.759 86.6826 310.976C69.8023 307.093 50.855 301.675 38.3905 290.871C26.5524 280.599 21.7921 265.786 19.8817 255.2C16.1236 234.343 17.0631 222.85 22.8256 219.061C28.6194 215.24 37.0126 220.846 42.5871 224.541C44.247 225.637 45.9694 226.764 46.6584 226.984C56.4922 230.021 66.5453 232.965 76.2538 235.784C82.8932 237.726 89.5011 239.667 96.1405 241.64C114.117 247.027 132.125 253.165 149.663 259.898C158.432 263.28 167.232 266.85 175.876 270.546C177.254 271.141 178.663 271.704 180.104 272.3C186.806 275.024 193.758 277.843 198.863 282.979C201.306 285.421 203.467 289.305 204.03 292.186C210.607 326.948 202.089 387.39 198.111 411.786C198.049 412.099 197.923 412.381 197.736 412.631C193.883 417.204 188.34 419.866 182.609 419.897C182.578 419.897 182.578 419.897 182.546 419.897C177.066 419.897 171.616 417.204 167.608 412.537C167.42 412.287 167.263 412.005 167.232 411.723C162.941 387.578 161.282 361.177 162.378 335.372C162.597 330.518 162.91 326.478 163.317 322.751C156.145 322.877 147.94 322.783 139.735 321.812ZM165.196 319.306C165.791 319.338 166.198 319.526 166.512 319.87C166.856 320.246 167.013 320.747 166.919 321.248C166.355 325.382 165.979 329.923 165.729 335.529C164.633 360.927 166.261 386.889 170.458 410.658C173.777 414.354 178.099 416.452 182.452 416.452C182.484 416.452 182.484 416.452 182.515 416.452C187.119 416.421 191.535 414.354 194.729 410.784C198.706 386.262 207.037 326.854 200.585 292.875C200.21 290.965 198.612 287.708 196.358 285.453C191.722 280.818 185.115 278.124 178.726 275.525C177.285 274.93 175.844 274.366 174.435 273.771C165.854 270.076 157.085 266.506 148.347 263.155C130.872 256.453 112.958 250.346 95.0757 244.96C88.4677 242.987 81.8596 241.045 75.2202 239.135C65.4804 236.285 55.4274 233.372 45.5623 230.335C44.3722 229.959 42.775 228.925 40.5827 227.454C36.073 224.447 28.5254 219.436 24.642 221.973C21.6668 223.915 19.0048 231.18 23.2014 254.605C25.0178 264.658 29.4962 278.657 40.5827 288.271C52.4835 298.575 70.9297 303.836 87.4029 307.625C90.7852 308.408 94.1676 309.191 97.5812 310.005C111.455 313.294 125.799 316.676 140.111 318.398C148.942 319.432 157.743 319.432 165.196 319.306Z" fill="#2935A4"/>
<path d="M146.506 438.907C141.495 438.938 136.516 436.464 132.82 432.142C128.436 407.527 126.901 381.377 127.997 356.198C128.404 346.96 129.187 337.596 131.912 329.046C134.637 320.466 139.554 312.699 146.256 309.191C152.958 305.684 161.57 306.216 166.205 313.263C168.648 353.035 166.643 393.215 160.286 432.267C156.684 436.62 151.517 438.907 146.506 438.907Z" fill="#009CE2"/>
<path d="M129.28 341.761C120.762 341.917 112.4 341.855 103.913 340.853C86.0301 338.692 68.5547 334.057 51.048 330.048C35.1073 326.384 15.8468 321.029 3.47629 310.318C-6.54541 301.612 -12.1199 288.71 -14.4688 275.65C-24.8036 218.058 4.44719 247.716 10.0844 249.407C26.5262 254.48 43.0934 259.146 59.5978 264.063C77.6056 269.45 95.4254 275.556 112.995 282.29C121.764 285.672 130.501 289.211 139.145 292.906C146.724 296.163 155.65 298.982 161.6 304.963C166.861 310.256 167.801 317.052 164.231 323.628C156.808 337.22 143.843 341.479 129.28 341.761Z" fill="#009CE2"/>
<path d="M103.724 342.544C89.2241 340.79 74.8179 337.376 60.8815 334.088C57.4678 333.274 54.0541 332.491 50.6718 331.708C33.7915 327.825 14.8443 322.407 2.37981 311.603C-9.48964 301.331 -14.2186 286.549 -16.129 275.932C-19.8872 255.075 -18.9476 243.582 -13.1852 239.824C-7.39136 236.034 1.00182 241.609 6.57639 245.304C8.23622 246.4 9.95866 247.528 10.6477 247.747C20.4815 250.785 30.5345 253.697 40.243 256.547C46.8824 258.489 53.4904 260.399 60.1298 262.403C78.1062 267.759 96.114 273.928 113.652 280.661C122.421 284.012 131.221 287.614 139.865 291.309C141.243 291.904 142.652 292.468 144.093 293.032C150.795 295.756 157.747 298.575 162.852 303.711C165.295 306.153 167.456 310.037 168.02 312.918C174.596 347.68 166.078 408.122 162.101 432.518C162.038 432.831 161.913 433.113 161.725 433.363C157.873 437.936 152.361 440.597 146.598 440.629C146.567 440.629 146.567 440.629 146.536 440.629C141.055 440.629 135.606 437.936 131.628 433.269C131.44 433.019 131.284 432.737 131.253 432.455C126.962 408.31 125.302 381.909 126.398 356.104C126.618 351.25 126.899 347.21 127.338 343.483C120.135 343.609 111.929 343.546 103.724 342.544ZM129.186 340.038C129.718 340.038 130.156 340.226 130.501 340.602C130.845 340.978 131.002 341.479 130.908 341.98C130.344 346.114 129.968 350.655 129.718 356.261C128.622 381.659 130.25 407.621 134.447 431.359C137.767 435.054 142.089 437.153 146.442 437.153C146.473 437.153 146.473 437.153 146.504 437.153C151.108 437.121 155.524 435.054 158.718 431.484C162.696 406.963 171.026 347.555 164.575 313.576C164.199 311.665 162.602 308.408 160.347 306.153C155.712 301.518 149.104 298.825 142.715 296.257C141.274 295.662 139.834 295.098 138.424 294.472C129.843 290.777 121.074 287.207 112.337 283.856C94.8613 277.154 76.9474 271.016 59.065 265.692C52.4569 263.719 45.8176 261.777 39.2095 259.835C29.4697 257.017 19.4166 254.073 9.55151 251.035C8.36143 250.691 6.76424 249.626 4.57199 248.154C0.0622253 245.148 -7.48535 240.137 -11.3688 242.674C-14.3439 244.615 -17.0059 251.881 -12.8094 275.306C-10.9929 285.359 -6.51451 299.358 4.57199 308.972C16.4728 319.275 34.919 324.536 51.3922 328.326C54.8058 329.109 58.2194 329.923 61.6331 330.737C75.4755 334.026 89.7878 337.408 104.1 339.13C112.932 340.164 121.732 340.164 129.186 340.038Z" fill="#2935A4"/>
<path d="M74.1621 262.435C65.4244 268.729 54.056 273.114 41.5602 275.807C36.017 276.997 26.2458 275.807 16.6938 273.521C6.73479 271.109 -2.97368 267.539 -7.42081 264.251C-22.6413 253.071 -20.0419 225.95 -19.5095 209.634C-18.7892 187.618 -15.5009 165.54 -8.07855 144.745C-3.47483 131.842 4.10415 118.345 14.5017 108.95C24.2415 100.15 36.4555 94.951 51.0182 97.1745C59.4741 98.4585 66.8337 102.655 72.4083 108.073C74.1621 109.764 75.728 111.643 77.1059 113.553C82.8371 121.508 85.4365 130.746 87.2842 139.828C93.4225 170.143 93.0781 202.337 91.5435 232.934C90.9798 245.461 84.3717 255.232 74.1621 262.435Z" fill="#FFD371"/>
<path d="M89.414 166.385L92.859 166.104L93.0156 167.826C95.0199 191.126 94.237 214.927 93.3601 233.059C92.2953 254.762 74.037 270.546 41.9676 277.53C40.4017 277.874 38.5226 278.031 36.4244 278.031C22.7698 278.031 -0.499336 271.486 -8.39143 265.692C-23.0168 254.95 -22.046 231.306 -21.357 214.081C-21.2944 212.515 -21.2318 211.012 -21.1691 209.603C-20.3862 185.395 -16.5028 163.41 -9.64421 144.182C-0.123596 117.593 20.8907 90.8487 51.3316 95.5149L53.0228 95.7654L52.4904 99.179L50.7992 98.9285C22.4253 94.5754 2.63236 120.068 -6.41848 145.34C-13.1831 164.225 -16.9726 185.865 -17.7555 209.697C-17.7868 211.138 -17.8494 212.641 -17.9121 214.207C-18.5697 230.679 -19.5093 253.228 -6.35578 262.873C2.03739 269.043 30.474 276.434 41.216 274.116C58.8166 270.295 88.5371 259.836 89.8838 232.84C90.792 214.802 91.5437 191.157 89.5707 168.077L89.414 166.385Z" fill="#2935A4"/>
<path d="M121.758 297.541C118.407 297.948 114.962 297.823 111.611 297.635C108.26 297.416 104.721 296.946 101.997 295.004C100.556 293.971 99.3345 292.342 99.5851 290.62C99.8669 288.678 101.903 287.457 103.813 286.956C108.291 285.766 113.052 286.893 117.405 288.522C121.758 290.119 125.986 292.186 130.558 292.969C131.247 293.094 131.936 293.157 132.563 293.501C133.158 293.846 133.659 294.472 133.596 295.161C133.471 296.163 132.312 296.664 131.341 296.883C128.084 297.541 124.921 297.165 121.758 297.541Z" fill="white"/>
<path d="M129.157 317.647C129.157 318.492 128.75 319.182 127.999 319.557C127.247 319.933 126.37 319.933 125.556 319.683C124.773 319.432 124.053 318.994 123.395 318.492C123.113 319.714 122.205 320.622 120.983 320.841C119.731 321.029 118.415 320.403 117.789 319.275C117.726 320.184 117.194 320.904 116.38 321.28C115.565 321.656 114.532 321.562 113.812 321.029C112.966 320.403 112.59 319.338 112.183 318.336C111.306 316.144 110.147 314.077 108.707 312.198C107.235 310.256 104.698 309.473 102.381 308.753C100.063 308.033 97.6517 307.532 95.4595 306.435C93.2672 305.339 91.2941 303.586 90.6051 301.237C90.0414 299.295 90.4485 297.166 91.2941 295.349C92.1397 293.533 93.4237 291.936 94.7078 290.37C95.4907 289.399 96.305 288.397 97.3384 287.676C98.3719 286.956 99.6247 285.891 100.689 286.549C108.112 290.996 117.82 291.027 124.491 296.539C129.126 300.36 131.506 306.185 133.698 311.759C134.262 313.169 134.795 314.86 134.012 316.144C133.542 316.927 132.696 317.365 131.819 317.584C130.974 317.741 130.066 317.71 129.157 317.647Z" fill="white"/>
<path d="M135.512 317.02C134.855 318.116 133.664 318.931 132.193 319.244C131.597 319.369 131.034 319.4 130.47 319.4C130.094 320.121 129.53 320.716 128.748 321.091C127.651 321.624 126.336 321.718 125.052 321.311C124.708 321.217 124.394 321.091 124.05 320.904C123.361 321.749 122.359 322.313 121.2 322.469C120.198 322.626 119.164 322.438 118.256 321.968C117.912 322.313 117.504 322.563 117.066 322.783C116.502 323.033 115.876 323.19 115.281 323.19C114.373 323.19 113.496 322.908 112.744 322.375C111.523 321.499 111.022 320.183 110.521 318.931C109.706 316.895 108.61 314.953 107.295 313.199C106.136 311.696 103.85 310.976 101.814 310.35C101.251 310.162 100.655 310.005 100.06 309.849C98.244 309.348 96.3962 308.815 94.6111 307.938C91.6673 306.466 89.6316 304.243 88.88 301.706C88.2537 299.545 88.5355 297.009 89.663 294.597C90.6338 292.562 92.0431 290.808 93.2958 289.242C94.1101 288.24 95.0183 287.081 96.271 286.236L96.5842 286.016C97.7116 285.233 99.5594 283.887 101.501 285.045C101.783 285.233 102.096 285.359 102.409 285.515C102.691 285.39 103.004 285.296 103.286 285.233C108.642 283.824 114.185 285.453 117.912 286.831C119.07 287.269 120.229 287.707 121.388 288.177C124.582 289.461 127.558 290.651 130.971 291.215C131.691 291.34 132.506 291.465 133.32 291.904C134.635 292.624 135.387 293.971 135.23 295.286C135.136 296.194 134.51 297.823 131.629 298.48C130.752 298.668 129.906 298.794 129.029 298.888C131.66 302.333 133.445 306.529 135.262 311.101C135.794 312.323 136.796 314.891 135.512 317.02ZM132.099 312.385C129.906 306.873 127.808 302.019 124.175 298.606C123.674 298.136 123.643 297.384 123.893 296.727C124.144 296.069 124.896 295.631 125.584 295.599C127.432 295.568 129.186 295.505 130.908 295.13C131.253 295.036 131.504 294.942 131.629 294.91C131.347 294.785 130.908 294.691 130.251 294.597C126.712 294.002 123.392 292.687 120.166 291.403C119.039 290.964 117.912 290.495 116.784 290.088C113.496 288.866 108.642 287.394 104.257 288.584C103.881 288.678 103.505 288.835 103.161 288.991C102.691 289.211 102.127 289.211 101.658 288.96L101.219 288.741C100.749 288.522 100.28 288.271 99.9978 288.052C99.7473 288.083 99.0583 288.553 98.6825 288.835L98.338 289.085C97.4924 289.68 96.7721 290.557 96.0831 291.434C94.893 292.906 93.6716 294.409 92.8887 296.069C92.1057 297.729 91.8865 299.389 92.2936 300.735C92.7634 302.332 94.2041 303.836 96.2397 304.838C97.7117 305.589 99.3715 306.028 101.094 306.529C101.689 306.686 102.315 306.873 102.91 307.061C105.322 307.813 108.297 308.721 110.113 311.101C111.648 313.106 112.901 315.329 113.903 317.897C114.185 318.586 114.467 319.338 114.874 319.62C115.093 319.776 115.437 319.807 115.719 319.713C116.064 319.557 116.126 319.338 116.126 319.15C116.189 318.398 116.722 317.741 117.473 317.584C117.598 317.553 117.724 317.521 117.849 317.521C118.444 317.521 119.039 317.834 119.352 318.398C119.634 318.868 120.26 319.181 120.793 319.087C121.513 318.962 121.732 318.367 121.795 318.085C121.92 317.521 122.327 317.051 122.891 316.832C123.455 316.644 124.081 316.738 124.52 317.083C125.146 317.553 125.647 317.866 126.148 317.991C126.587 318.116 127.025 318.116 127.307 317.96C127.401 317.928 127.495 317.866 127.495 317.615C127.495 317.145 127.683 316.676 128.027 316.363C128.372 316.018 128.81 315.83 129.311 315.893C130.094 315.924 130.877 315.987 131.535 315.83C132.036 315.705 132.443 315.486 132.631 315.204C132.913 314.64 132.537 313.45 132.099 312.385Z" fill="#2935A4"/>
<path d="M122.043 305.183L120.979 303.836L123.703 301.706L124.768 303.053C129.591 309.16 130.311 312.793 131.032 316.3L131.564 318.868L128.182 319.588L127.649 316.989C126.929 313.607 126.334 310.663 122.043 305.183Z" fill="#2935A4"/>
<path d="M116.378 306.247L115.314 304.901L118.038 302.771L119.103 304.118C123.926 310.225 124.646 313.857 125.367 317.365L125.899 319.933L122.517 320.653L121.984 318.054C121.264 314.64 120.669 311.697 116.378 306.247Z" fill="#2935A4"/>
<path d="M110.831 308.94L109.766 307.594L112.491 305.464L113.556 306.811C118.379 312.918 119.099 316.55 119.819 320.058L120.352 322.626L116.969 323.346L116.437 320.747C115.748 317.333 115.153 314.39 110.831 308.94Z" fill="#2935A4"/>
<path d="M130.182 348.118L130.057 349.841L126.612 349.59L126.737 347.868C126.956 344.861 127.301 342.638 127.645 340.477C127.99 338.316 128.334 336.249 128.522 333.368L128.647 331.645L132.092 331.896L131.967 333.618C131.748 336.625 131.403 338.848 131.059 341.009C130.714 343.17 130.401 345.237 130.182 348.118Z" fill="#2935A4"/>
<path d="M106.131 283.386C106.068 294.911 97.6438 302.74 88.499 309.474C73.6857 306.624 54.895 299.014 35.9164 287.332C24.5793 280.349 16.4053 273.835 10.7368 267.759C10.0792 267.07 9.39014 266.319 8.76379 265.536C3.84689 259.711 1.27885 254.324 0.464584 249.407C-4.48363 235.409 -7.5528 216.149 -7.58411 194.853C-7.61543 152.105 -4.20179 121.289 19.819 117.406C50.3538 112.489 47.3161 152.043 47.3787 194.79C47.41 212.704 45.2491 229.208 41.6162 242.33C48.1617 246.338 55.6779 251.099 64.3217 256.422C82.0475 267.321 96.6729 275.933 106.131 283.386Z" fill="#FFD371"/>
<path d="M65.2353 254.95L73.8477 260.211C87.4709 268.542 99.2465 275.745 107.201 282.008C107.608 282.321 107.859 282.822 107.859 283.355C107.796 295.725 99.0272 303.867 89.5379 310.82C89.2248 311.039 88.8803 311.164 88.5045 311.164C88.4105 311.164 88.2853 311.164 88.1913 311.133C72.4384 308.095 53.5538 300.141 35.045 288.772C24.115 282.071 15.5339 275.369 9.55222 268.949C8.83191 268.228 8.14291 267.446 7.48523 266.6C2.63097 260.838 -0.281586 255.138 -1.12717 249.939C-6.35725 235.158 -9.23841 215.584 -9.26972 194.821V193.099H-5.82484V194.821C-5.79353 215.177 -2.97493 234.343 2.19251 249.062C3.00677 253.948 5.66882 259.115 10.1473 264.408C10.7423 265.159 11.3687 265.88 12.0577 266.569C17.8515 272.801 26.2133 279.315 36.8614 285.86C54.7438 296.852 72.9081 304.556 88.1286 307.625C96.4278 301.456 104.007 294.347 104.414 284.2C96.6158 278.187 85.2161 271.204 72.0626 263.186L63.4502 257.894C58.9405 255.138 54.7438 252.507 50.8604 250.065C47.2589 247.81 43.8766 245.711 40.7448 243.77C40.0872 243.363 39.7739 242.58 39.9931 241.828C43.72 228.268 45.693 211.983 45.693 194.759C45.693 191.157 45.693 187.556 45.7243 184.017C45.7557 178.348 45.787 172.774 45.7243 167.45L45.693 165.728L49.138 165.696L49.1692 167.419C49.2319 172.774 49.2006 178.348 49.1692 184.048C49.1379 187.587 49.138 191.188 49.138 194.79C49.1693 211.795 47.2589 227.923 43.6574 241.546C46.5073 243.3 49.5137 245.179 52.7082 247.183C56.5603 249.595 60.7568 252.194 65.2353 254.95Z" fill="#2935A4"/>
<path d="M23.2706 105.505C25.5881 103.187 28.5946 101.183 31.883 99.5545L34.0439 85.0233H59.9125V98.1452C63.5453 99.5544 66.959 101.496 69.2139 103.907C68.0238 107.822 62.1673 111.424 53.5862 111.424C45.7254 111.424 27.843 107.885 23.2706 105.505Z" fill="white"/>
<path d="M53.6088 113.147C45.4349 113.147 27.3958 109.608 22.4789 107.04C21.9778 106.789 21.6646 106.319 21.5707 105.756C21.4767 105.223 21.6646 104.66 22.0717 104.284C24.264 102.123 27.0826 100.087 30.3397 98.4275L32.3753 84.7733C32.5006 83.9277 33.2209 83.3014 34.0978 83.3014H59.9663C60.9059 83.3014 61.6888 84.0843 61.6888 85.0238V96.9869C64.5387 98.177 68.0463 100.056 70.5204 102.718C70.9275 103.156 71.0841 103.814 70.8962 104.378C69.3303 109.545 62.2212 113.147 53.6088 113.147ZM59.3087 99.7741C58.651 99.5236 58.2125 98.866 58.2125 98.177V86.7775H35.5385L33.5968 99.8368C33.5028 100.401 33.1583 100.87 32.6572 101.121C30.371 102.248 28.304 103.532 26.5189 104.941C32.8451 107.04 46.7189 109.702 53.6088 109.702C60.6866 109.702 65.6348 107.071 67.2007 104.315C65.3217 102.593 62.6284 101.058 59.3087 99.7741Z" fill="#2935A4"/>
<path d="M66.3386 96.7845C51.8237 99.4296 31.6142 87.8654 28.3424 70.1045C25.1096 52.3644 34.249 35.8056 48.7639 33.1605C63.2789 30.5153 74.4161 36.0327 77.6488 53.7728C80.8907 71.5428 80.8536 94.1394 66.3386 96.7845Z" fill="white"/>
<path d="M49.5668 92.6527L51.1532 93.3489L49.761 96.5216L48.1746 95.8255C46.0985 94.9182 44.0667 93.8338 42.1691 92.545C33.873 87.1131 28.2429 79.0379 26.6694 70.4167C23.2532 51.7504 33.0403 34.3073 48.4815 31.4787C65.2566 28.4083 76.2433 36.23 79.3694 53.5115C81.0716 62.8792 85.1446 92.9657 68.4248 98.0487C67.8555 98.2218 67.2471 98.374 66.6296 98.4963C64.3004 98.9098 61.811 99.012 59.2123 98.7546L57.4929 98.5899L57.8222 95.1511L59.5416 95.3157C61.8043 95.5443 64.0058 95.4642 66.0172 95.0819C81.6355 92.2977 77.5714 62.994 75.955 54.124C73.1383 38.6141 64.0975 32.1322 49.094 34.8931C35.5353 37.3457 27.0135 53.0293 30.0538 69.8132C31.4739 77.4991 36.5519 84.7276 44.0693 89.6434C45.8314 90.8097 47.6679 91.7898 49.5668 92.6527Z" fill="#2935A4"/>
<path d="M21.8578 88.3748C18.2249 81.4224 17.348 73.1547 18.1935 65.3567C19.0391 57.5588 21.6698 50.0427 24.9582 42.9337C26.4928 39.5828 28.7163 35.8874 32.3805 35.3863C35.5436 34.9478 38.4562 37.14 40.6484 39.4888C43.9995 43.1216 46.5675 47.4747 48.1334 52.1723C48.6031 53.6129 49.0103 55.1787 48.5718 56.6506C48.1647 58.1225 45.5653 59.3126 44.0933 58.9368C35.8567 66.265 31.7541 77.9775 33.6332 88.8445C29.7498 89.189 25.6785 89.0324 21.8578 88.3748Z" fill="#2935A4"/>
<path d="M36.5755 40.397C35.2601 42.2447 32.5042 43.2781 30.6565 41.9315C29.7482 41.2738 29.2158 40.1777 28.6834 39.1756C27.7126 37.3592 26.4912 35.6681 24.7687 34.5407C23.0462 33.4446 20.8226 32.9749 18.9435 33.7891C22.0127 29.8119 27.7439 28.4965 32.2849 30.5947C32.3476 27.5883 34.5085 24.9577 37.1079 23.4858C39.7073 22.0139 42.7451 21.5128 45.689 21.0117C44.4989 22.1704 43.0269 22.9534 41.6489 23.9242C40.3023 24.895 38.987 26.0851 38.4546 27.6509C37.7969 29.5613 38.3606 31.6909 39.1436 33.5699C40.0518 35.6994 37.8908 38.5493 36.5755 40.397Z" fill="#2935A4"/>
<path d="M34.5958 76.255C33.4481 72.4797 34.976 68.6765 37.9724 67.7656C40.9987 66.8455 44.3549 69.1639 45.5026 72.9392C46.6504 76.7146 45.1316 80.5478 42.1352 81.4587C39.1089 82.3787 35.7435 80.0304 34.5958 76.255Z" fill="white"/>
<path d="M19.5099 77.5686C20.293 76.8068 21.1633 76.1166 22.1548 75.717C21.4289 76.5596 20.5222 77.1299 19.5099 77.5686Z" fill="#2935A4"/>
<path d="M94.0723 29.8606C95.7079 31.6874 96.4131 34.2224 96.5751 36.6935C96.8928 41.5068 95.1417 46.6217 91.2224 49.4498C87.3331 52.2688 81.1026 52.2318 78.0412 48.5145C79.5847 53.0532 77.0194 58.612 72.5442 60.3653C68.0691 62.1186 62.7459 60.0055 60.792 55.6242C59.8466 58.7593 57.9945 61.7118 55.2714 63.5216C52.5483 65.3314 48.9359 65.9386 45.8868 64.738C42.8586 63.4983 40.5851 60.327 40.801 57.0536C41.0026 53.9482 33.9645 53.7311 31.4876 55.597C29.0107 57.4629 28.409 61.0827 29.2809 64.0582C30.1527 67.0336 32.2166 69.5158 34.3966 71.7335C32.336 75.0767 32.1873 79.5408 34.0568 82.9985C35.9264 86.4562 39.3358 89.3803 43.2567 89.4648C44.8453 91.5677 44.7791 94.7956 43.1098 96.8415C41.4105 98.8965 38.2813 99.5859 35.8952 98.4129C33.5091 97.2398 31.715 94.6757 32.2994 92.0758C32.2064 93.708 30.7261 94.9764 29.1316 95.3302C27.537 95.684 25.8945 95.2341 24.3537 94.6878C22.0587 93.8144 19.8341 92.5267 18.351 90.5554C16.5697 88.2492 15.9403 85.1019 16.6889 82.2884C17.1623 80.5079 18.1672 78.8604 19.4794 77.5777C20.5008 77.169 21.4285 76.5596 22.1244 75.7262C21.103 76.1349 20.2625 76.8159 19.4794 77.5777C17.0053 78.5917 13.9689 78.402 11.7405 76.8863C8.56796 74.7413 7.17547 70.4838 8.07677 66.7729C8.97808 63.062 11.2196 59.9912 14.8023 58.6401C9.63992 58.6711 4.65326 55.0809 3.06037 50.1643C1.46749 45.2478 3.38686 39.3944 7.58753 36.4152C11.7791 33.4062 17.121 34.0734 21.2689 37.1658C18.6218 33.519 18.4529 28.3331 20.6282 24.3985C22.8036 20.464 27.2099 17.9461 31.7119 17.7885C36.223 17.6609 40.5656 19.0248 43.3951 22.518C43.0231 16.772 48.0452 11.2192 53.8069 11.006C59.5777 10.8228 65.92 15.9648 65.9051 21.7302C64.7056 16.9232 68.0877 11.5743 72.831 10.165C77.5744 8.75569 83.0396 11.1203 85.7126 15.283C88.3648 19.4848 89.7052 23.4633 87.3995 27.8303C89.7002 27 92.4277 28.0039 94.0723 29.8606Z" fill="#2935A4"/>
</svg>
