<svg width="268" height="400" viewBox="0 0 268 400" fill="none" xmlns="http://www.w3.org/2000/svg">
<path d="M246.244 348.668V374.182L246.305 399.695L178.746 399.787V383.103C178.746 378.231 173.814 374.304 167.755 374.304L100.349 374.395C94.2898 374.395 89.3881 378.353 89.4185 383.224V399.909L21.89 400V374.486L21.8291 348.973L246.244 348.668Z" fill="#38474F"/>
<path d="M24.9959 359.081C31.5113 357.711 38.7269 358.442 45.3641 358.381C52.5188 358.32 59.6431 358.259 66.7978 358.198C80.8637 358.077 94.9296 358.107 108.996 358.077C136.914 358.077 164.833 358.077 192.752 358.077C200.546 358.077 208.34 358.138 216.134 358.168C223.867 358.198 231.905 358.046 239.273 360.604C240.825 361.152 240.825 363.07 239.273 363.618C232.909 365.84 226.12 365.962 219.392 366.084C212.267 366.236 205.113 366.206 197.958 366.236C183.892 366.297 169.826 366.297 155.76 366.358C127.841 366.419 99.9227 366.662 72.004 366.51C64.2099 366.48 56.4159 366.419 48.6218 366.358C44.7247 366.358 40.8277 366.297 36.9306 366.297C32.9422 366.297 28.9234 366.51 24.9959 365.688C21.586 364.988 21.586 359.782 24.9959 359.081Z" fill="#263238"/>
<path d="M177.042 282.267V259.554C177.011 255.353 176.554 251.181 175.702 247.102L162.093 183.349C160.083 173.971 151.802 167.243 142.181 167.273H117.216L117.185 133.966L151.528 133.905H175.611C185.658 133.844 194.761 139.872 198.658 149.158L237.628 241.622C240.856 249.233 242.5 257.423 242.5 265.704L242.561 319.532V344.376L177.102 344.467L25.3916 344.68V330.401C25.3916 324.556 30.0803 319.806 35.9258 319.806L139.715 319.654C160.357 319.654 177.042 302.878 177.011 282.236L177.042 282.267Z" stroke="#DBDBDB" stroke-miterlimit="10"/>
<path d="M12.7263 334.176L255.287 333.842C262.32 333.842 268.044 339.535 268.044 346.568C268.044 353.601 262.35 359.325 255.317 359.325L12.7567 359.659C5.72378 359.659 0 353.966 0 346.933C0 339.9 5.69334 334.176 12.7263 334.176Z" fill="#38474F"/>
<path d="M139.368 38.4281L161.916 50.6248L182.702 12.1969L160.154 0.000262971L139.368 38.4281Z" fill="#A6CCE4"/>
<path d="M34.6608 220.28L67.0098 237.779L180.575 27.8317L148.226 10.3334L34.6608 220.28Z" fill="#38474F"/>
<path d="M30.5987 194.932L90.4229 227.292L180.522 60.7271L120.698 28.3668L30.5987 194.932Z" fill="white" stroke="#DBDBDB" stroke-miterlimit="10"/>
<path d="M51.7262 185.632C55.1361 187.459 59.3681 186.211 61.2253 182.801L66.2488 173.515C68.0755 170.105 66.8273 165.873 63.4173 164.016C60.0074 162.189 55.7755 163.437 53.9183 166.847L48.8947 176.133C47.068 179.543 48.3163 183.775 51.7262 185.632Z" fill="#F7F7F7"/>
<path d="M67.3451 156.77C70.7551 158.597 74.987 157.348 76.8442 153.938L129.18 57.2429C131.037 53.833 129.759 49.6011 126.349 47.7439C122.939 45.9171 118.707 47.1654 116.85 50.5753L64.5137 147.271C62.6565 150.681 63.9352 154.913 67.3451 156.77Z" fill="#F7F7F7"/>
<path d="M95.0717 319.748L114.679 319.72L114.632 286.078L95.0248 286.105L95.0717 319.748Z" fill="#DBDBDB"/>
<path d="M167.371 134.934C170.119 119.01 159.438 103.874 143.514 101.126C127.591 98.3789 112.455 109.06 109.707 124.984C106.959 140.907 117.641 156.043 133.564 158.791C149.488 161.539 164.624 150.857 167.371 134.934Z" fill="#A6CCE4"/>
<path d="M120.534 130.007C120.534 139.963 128.632 148.001 138.588 148.001C148.544 148.001 156.581 139.902 156.581 129.947C156.581 119.991 148.483 111.923 138.527 111.953C128.571 111.953 120.534 120.052 120.534 130.007Z" stroke="#263238" stroke-miterlimit="10"/>
<path d="M144.312 262.812C126.684 274.35 95.3858 277.791 63.6919 273.102C81.6548 293.227 131.281 291.796 144.312 262.812Z" fill="#A6CCE4"/>
<path d="M60.4337 297.398L149.274 297.277C153.506 297.277 156.947 293.836 156.916 289.604C156.916 285.372 153.476 281.932 149.244 281.962L60.4033 282.084C56.1713 282.084 52.731 285.525 52.7614 289.756C52.7614 293.988 56.2018 297.429 60.4337 297.398Z" fill="#EBEBEB"/>
</svg>
